<svg width="220" height="82" viewBox="0 0 220 82" fill="none" xmlns="http://www.w3.org/2000/svg">
<path d="M40.8535 80.7297C62.754 80.7297 80.5078 62.8277 80.5078 40.7444C80.5078 18.6612 62.754 0.759155 40.8535 0.759155C18.9531 0.759155 1.19922 18.6612 1.19922 40.7444C1.19922 62.8277 18.9531 80.7297 40.8535 80.7297Z" fill="#C8DEEE"/>
<path d="M40.8525 81.4889C18.5658 81.4889 0.445312 63.2172 0.445312 40.7445C0.445312 18.2717 18.5658 0 40.8525 0C63.1393 0 81.2598 18.2717 81.2598 40.7445C81.2598 63.2172 63.1393 81.4889 40.8525 81.4889ZM40.8525 1.51843C19.394 1.51843 1.95117 19.1069 1.95117 40.7445C1.95117 62.3821 19.394 79.9705 40.8525 79.9705C62.311 79.9705 79.7539 62.3821 79.7539 40.7445C79.7539 19.1069 62.311 1.51843 40.8525 1.51843Z" fill="white"/>
<path d="M90.4219 0.885742H89.418V80.5779H90.4219V0.885742Z" fill="#8B8C8D"/>
<path d="M104.775 22.7258V21.3845H109.569V25.6108C108.841 26.1929 108.063 26.6484 107.285 26.9521C106.507 27.2558 105.704 27.4076 104.876 27.4076C103.771 27.4076 102.742 27.1799 101.839 26.699C100.935 26.2182 100.233 25.5349 99.7809 24.6238C99.3291 23.7128 99.0781 22.7005 99.0781 21.587C99.0781 20.4735 99.304 19.4359 99.7809 18.4742C100.233 17.5125 100.91 16.8039 101.764 16.3231C102.617 15.8423 103.621 15.6145 104.75 15.6145C105.578 15.6145 106.306 15.741 106.959 16.0194C107.611 16.2978 108.138 16.6521 108.515 17.1329C108.891 17.6138 109.167 18.2211 109.368 19.0057L108.013 19.3853C107.837 18.8032 107.636 18.3477 107.385 18.0187C107.134 17.6897 106.783 17.4113 106.306 17.2089C105.829 17.0064 105.327 16.9052 104.75 16.9052C104.073 16.9052 103.47 17.0064 102.968 17.2089C102.466 17.4113 102.065 17.6897 101.764 18.044C101.462 18.3983 101.211 18.7526 101.061 19.1828C100.785 19.8914 100.634 20.6506 100.634 21.4858C100.634 22.498 100.81 23.3585 101.161 24.0418C101.513 24.7251 102.015 25.2312 102.667 25.5602C103.32 25.8892 104.047 26.0663 104.775 26.0663C105.428 26.0663 106.055 25.9398 106.683 25.6867C107.31 25.4337 107.762 25.1553 108.088 24.8769V22.7511H104.775V22.7258Z" fill="#8E8F8F"/>
<path d="M111.727 27.2051V15.7916H113.232V25.8639H118.804V27.2051H111.727Z" fill="#8E8F8F"/>
<path d="M120.613 27.2051V15.7916H128.795V17.1329H122.119V20.6253H128.368V21.9666H122.119V25.8386H129.071V27.1798H120.613V27.2051Z" fill="#8E8F8F"/>
<path d="M131.152 27.2051V15.7916H139.334V17.1329H132.658V20.6253H138.908V21.9666H132.658V25.8386H139.61V27.1798H131.152V27.2051Z" fill="#8E8F8F"/>
<path d="M141.168 23.5355L142.573 23.409C142.649 23.9911 142.799 24.4466 143.05 24.8262C143.301 25.1805 143.678 25.4842 144.18 25.712C144.682 25.9397 145.284 26.041 145.911 26.041C146.489 26.041 146.991 25.965 147.417 25.7879C147.844 25.6107 148.17 25.383 148.396 25.0793C148.597 24.7756 148.722 24.4466 148.722 24.0923C148.722 23.738 148.622 23.409 148.421 23.1559C148.22 22.8776 147.869 22.6751 147.392 22.4726C147.091 22.3461 146.413 22.169 145.384 21.9159C144.355 21.6628 143.628 21.4351 143.201 21.2073C142.649 20.9289 142.247 20.5746 141.996 20.1444C141.72 19.7142 141.595 19.2586 141.595 18.7272C141.595 18.1451 141.745 17.6137 142.071 17.1075C142.398 16.6014 142.875 16.2218 143.502 15.9687C144.129 15.7156 144.807 15.5891 145.585 15.5891C146.413 15.5891 147.166 15.7156 147.794 15.994C148.446 16.2724 148.923 16.6773 149.275 17.2088C149.626 17.7402 149.802 18.3476 149.827 19.0056L148.396 19.1068C148.321 18.3729 148.07 17.8414 147.618 17.4618C147.166 17.0822 146.514 16.9051 145.635 16.9051C144.732 16.9051 144.079 17.0822 143.653 17.4112C143.226 17.7402 143.025 18.1451 143.025 18.626C143.025 19.0309 143.176 19.3852 143.477 19.6383C143.753 19.8913 144.506 20.1697 145.736 20.4481C146.966 20.7265 147.794 20.9795 148.246 21.182C148.898 21.4857 149.4 21.8653 149.701 22.3461C150.002 22.8269 150.178 23.3584 150.178 23.9658C150.178 24.5731 150.002 25.1552 149.651 25.6867C149.3 26.2181 148.823 26.6483 148.17 26.952C147.518 27.2557 146.79 27.4075 145.987 27.4075C144.958 27.4075 144.104 27.2557 143.402 26.952C142.699 26.6483 142.172 26.1928 141.77 25.5854C141.369 24.9781 141.193 24.2948 141.168 23.5355Z" fill="#8E8F8F"/>
<path d="M151.758 21.6376C151.758 19.7395 152.26 18.2717 153.264 17.1835C154.268 16.0953 155.573 15.5638 157.179 15.5638C158.233 15.5638 159.162 15.8169 160.015 16.3231C160.843 16.8292 161.496 17.5378 161.922 18.4235C162.374 19.3346 162.575 20.3469 162.575 21.4857C162.575 22.6498 162.349 23.6874 161.872 24.5985C161.395 25.5095 160.743 26.1928 159.915 26.6737C159.061 27.1545 158.158 27.3823 157.154 27.3823C156.1 27.3823 155.146 27.1292 154.293 26.5977C153.464 26.0663 152.812 25.3577 152.385 24.472C151.959 23.5862 151.758 22.6498 151.758 21.6376ZM153.314 21.6629C153.314 23.0294 153.69 24.1177 154.418 24.9022C155.146 25.6867 156.075 26.0916 157.179 26.0916C158.308 26.0916 159.237 25.6867 159.965 24.9022C160.693 24.0923 161.069 22.9788 161.069 21.511C161.069 20.5747 160.918 19.7648 160.592 19.0815C160.291 18.3982 159.814 17.8415 159.237 17.4619C158.635 17.0823 157.957 16.8798 157.229 16.8798C156.175 16.8798 155.246 17.2594 154.493 17.9933C153.741 18.7272 153.314 19.942 153.314 21.6629Z" fill="#8E8F8F"/>
<path d="M164.508 27.2051V15.7916H166.039L171.987 24.7503V15.7916H173.417V27.2051H171.887L165.938 18.2464V27.2051H164.508Z" fill="#8E8F8F"/>
<path d="M99.5039 46.3375V34.924H104.523C105.527 34.924 106.305 35.0252 106.832 35.2276C107.359 35.4301 107.786 35.7844 108.087 36.3158C108.414 36.8473 108.564 37.404 108.564 38.0367C108.564 38.8466 108.313 39.5298 107.786 40.0866C107.259 40.6434 106.456 40.9977 105.377 41.1495C105.778 41.352 106.079 41.5291 106.28 41.7063C106.707 42.1112 107.134 42.6173 107.535 43.2247L109.493 46.3375H107.61L106.105 43.9586C105.678 43.2753 105.301 42.7439 105.025 42.3896C104.749 42.0353 104.498 41.7822 104.272 41.6303C104.047 41.4785 103.821 41.3773 103.595 41.3267C103.419 41.3013 103.143 41.276 102.767 41.276H101.035V46.3375H99.5039ZM101.01 39.9601H104.222C104.9 39.9601 105.452 39.8841 105.829 39.7576C106.205 39.6058 106.506 39.378 106.707 39.0743C106.908 38.7706 107.008 38.4163 107.008 38.062C107.008 37.5306 106.807 37.0751 106.431 36.7208C106.054 36.3665 105.427 36.1893 104.599 36.1893H101.01V39.9601Z" fill="#8E8F8F"/>
<path d="M110.949 46.3375V34.924H119.131V36.2652H112.455V39.7576H118.704V41.0989H112.455V44.9709H119.407V46.3122H110.949V46.3375Z" fill="#8E8F8F"/>
<path d="M129.521 42.3389L131.027 42.7185C130.701 43.9585 130.149 44.8949 129.321 45.5529C128.492 46.2109 127.514 46.5399 126.334 46.5399C125.104 46.5399 124.125 46.2868 123.347 45.7806C122.595 45.2745 121.992 44.5659 121.591 43.6042C121.189 42.6426 120.988 41.6303 120.988 40.5421C120.988 39.3526 121.214 38.315 121.666 37.4293C122.118 36.5435 122.745 35.8603 123.598 35.4047C124.427 34.9492 125.355 34.7214 126.334 34.7214C127.463 34.7214 128.417 34.9998 129.195 35.5819C129.973 36.1639 130.5 36.9738 130.801 38.0367L129.321 38.391C129.07 37.5558 128.668 36.9485 128.166 36.5689C127.664 36.1892 127.037 36.0121 126.284 36.0121C125.405 36.0121 124.678 36.2146 124.1 36.6448C123.523 37.075 123.096 37.6318 122.871 38.3404C122.645 39.049 122.519 39.7829 122.519 40.5421C122.519 41.5037 122.67 42.3642 122.946 43.0728C123.222 43.8067 123.674 44.3381 124.251 44.6924C124.828 45.0467 125.481 45.2239 126.183 45.2239C127.012 45.2239 127.74 44.9708 128.317 44.49C128.919 44.0091 129.321 43.3005 129.521 42.3389Z" fill="#8E8F8F"/>
<path d="M132.883 46.3375V34.924H137.902C138.906 34.924 139.684 35.0252 140.211 35.2276C140.738 35.4301 141.165 35.7844 141.466 36.3158C141.792 36.8473 141.943 37.404 141.943 38.0367C141.943 38.8466 141.692 39.5298 141.165 40.0866C140.638 40.6434 139.835 40.9977 138.756 41.1495C139.157 41.352 139.458 41.5291 139.659 41.7063C140.086 42.1112 140.512 42.6173 140.914 43.2247L142.872 46.3375H140.989L139.483 43.9586C139.057 43.2753 138.68 42.7439 138.404 42.3896C138.128 42.0353 137.877 41.7822 137.651 41.6303C137.425 41.4785 137.2 41.3773 136.974 41.3267C136.798 41.3013 136.522 41.276 136.146 41.276H134.414V46.3375H132.883ZM134.389 39.9601H137.601C138.279 39.9601 138.831 39.8841 139.207 39.7576C139.584 39.6058 139.885 39.378 140.086 39.0743C140.287 38.7706 140.387 38.4163 140.387 38.062C140.387 37.5306 140.186 37.0751 139.81 36.7208C139.433 36.3665 138.806 36.1893 137.978 36.1893H134.389V39.9601Z" fill="#8E8F8F"/>
<path d="M151.708 34.924H153.214V41.5291C153.214 42.6679 153.089 43.579 152.838 44.2623C152.587 44.9456 152.11 45.477 151.432 45.9072C150.755 46.3375 149.876 46.5399 148.797 46.5399C147.743 46.5399 146.865 46.3628 146.187 45.9832C145.509 45.6036 145.033 45.0721 144.731 44.3888C144.43 43.7055 144.305 42.7439 144.305 41.5291V34.924H145.811V41.5038C145.811 42.4908 145.911 43.2247 146.087 43.7055C146.262 44.1864 146.589 44.5407 147.04 44.7937C147.492 45.0468 148.019 45.1733 148.672 45.1733C149.776 45.1733 150.554 44.9203 151.031 44.4141C151.508 43.908 151.734 42.9463 151.734 41.5038V34.924H151.708Z" fill="#8E8F8F"/>
<path d="M155.973 46.3375V34.924H157.479V46.3375H155.973Z" fill="#8E8F8F"/>
<path d="M162.974 46.3375V36.2652H159.234V34.924H168.219V36.2652H164.48V46.3375H162.974Z" fill="#8E8F8F"/>
<path d="M169.727 46.3375V34.924H171.985L174.671 42.9969C174.922 43.7561 175.097 44.3129 175.223 44.6925C175.348 44.2876 175.549 43.6549 175.825 42.8704L178.536 34.924H180.544V46.3375H179.088V36.7967L175.775 46.3375H174.42L171.157 36.6195V46.3375H169.727Z" fill="#8E8F8F"/>
<path d="M182.953 46.3375V34.924H191.135V36.2652H184.459V39.7576H190.708V41.0989H184.459V44.9709H191.411V46.3122H182.953V46.3375Z" fill="#8E8F8F"/>
<path d="M193.469 46.3375V34.924H195L200.948 43.8827V34.924H202.378V46.3375H200.847L194.899 37.3787V46.3375H193.469Z" fill="#8E8F8F"/>
<path d="M207.775 46.3375V36.2652H204.035V34.924H212.995V36.2652H209.255V46.3375H207.775Z" fill="#8E8F8F"/>
<path d="M104.775 60.9902V59.6489H109.569V63.8752C108.841 64.4573 108.063 64.9128 107.285 65.2165C106.507 65.5202 105.704 65.672 104.876 65.672C103.771 65.672 102.742 65.4443 101.839 64.9634C100.935 64.4826 100.233 63.7993 99.7809 62.8882C99.3291 61.9772 99.0781 60.9649 99.0781 59.8514C99.0781 58.7379 99.304 57.7003 99.7809 56.7386C100.233 55.7769 100.91 55.0683 101.764 54.5875C102.617 54.1067 103.621 53.8789 104.75 53.8789C105.578 53.8789 106.306 54.0054 106.959 54.2838C107.611 54.5622 108.138 54.9165 108.515 55.3973C108.891 55.8782 109.167 56.4855 109.368 57.2701L108.013 57.6497C107.837 57.0676 107.636 56.6121 107.385 56.2831C107.134 55.9541 106.783 55.6757 106.306 55.4733C105.829 55.2708 105.327 55.1696 104.75 55.1696C104.073 55.1696 103.47 55.2708 102.968 55.4733C102.466 55.6757 102.065 55.9541 101.764 56.3084C101.462 56.6627 101.211 57.017 101.061 57.4472C100.785 58.1558 100.634 58.915 100.634 59.7502C100.634 60.7624 100.81 61.6229 101.161 62.3062C101.513 62.9895 102.015 63.4956 102.667 63.8246C103.32 64.1536 104.047 64.3307 104.775 64.3307C105.428 64.3307 106.055 64.2042 106.683 63.9511C107.31 63.6981 107.762 63.4197 108.088 63.1413V61.0155H104.775V60.9902Z" fill="#8E8F8F"/>
<path d="M111.801 65.4695V54.056H116.82C117.824 54.056 118.602 54.1573 119.129 54.3597C119.656 54.5622 120.083 54.9165 120.384 55.4479C120.685 55.9794 120.861 56.5361 120.861 57.1688C120.861 57.9786 120.61 58.6619 120.083 59.2187C119.556 59.7754 118.753 60.1297 117.674 60.2816C118.075 60.484 118.376 60.6612 118.577 60.8383C119.004 61.2433 119.43 61.7494 119.832 62.3568L121.79 65.4695H119.907L118.401 63.0907C117.975 62.4074 117.598 61.8759 117.322 61.5216C117.046 61.1673 116.795 60.9143 116.569 60.7624C116.343 60.6106 116.118 60.5093 115.892 60.4587C115.716 60.4334 115.44 60.4081 115.063 60.4081H113.332V65.4695H111.801ZM113.307 59.0921H116.519C117.197 59.0921 117.749 59.0162 118.125 58.8897C118.502 58.7378 118.803 58.5101 119.004 58.2064C119.205 57.9027 119.305 57.5484 119.305 57.1941C119.305 56.6627 119.104 56.2071 118.728 55.8528C118.351 55.4985 117.724 55.3214 116.896 55.3214H113.307V59.0921Z" fill="#8E8F8F"/>
<path d="M122.746 59.902C122.746 58.0039 123.248 56.5361 124.252 55.4479C125.256 54.385 126.561 53.8282 128.167 53.8282C129.221 53.8282 130.15 54.0813 131.003 54.5875C131.857 55.0936 132.484 55.8022 132.911 56.6879C133.362 57.599 133.563 58.6113 133.563 59.7501C133.563 60.9142 133.337 61.9518 132.86 62.8629C132.384 63.7739 131.731 64.4572 130.903 64.9381C130.05 65.4189 129.146 65.6467 128.142 65.6467C127.088 65.6467 126.134 65.3936 125.281 64.8622C124.453 64.3307 123.8 63.6221 123.374 62.7364C122.947 61.8506 122.746 60.9142 122.746 59.902ZM124.302 59.9273C124.302 61.2939 124.679 62.3821 125.406 63.1666C126.134 63.9511 127.063 64.356 128.167 64.356C129.297 64.356 130.225 63.9511 130.953 63.1666C131.681 62.3567 132.057 61.2432 132.057 59.7754C132.057 58.8391 131.907 58.0292 131.58 57.3459C131.279 56.6626 130.802 56.1059 130.225 55.7263C129.623 55.3467 128.945 55.1442 128.217 55.1442C127.163 55.1442 126.235 55.5238 125.482 56.2577C124.679 56.9916 124.302 58.2064 124.302 59.9273Z" fill="#8E8F8F"/>
<path d="M142.923 54.056H144.429V60.6612C144.429 61.8 144.304 62.7111 144.053 63.3944C143.802 64.0777 143.325 64.6091 142.647 65.0393C141.97 65.4695 141.091 65.672 140.012 65.672C138.958 65.672 138.079 65.4949 137.402 65.1152C136.724 64.7356 136.247 64.2042 135.946 63.5209C135.67 62.8123 135.52 61.8759 135.52 60.6612V54.056H137.025V60.6359C137.025 61.6229 137.126 62.3568 137.301 62.8376C137.477 63.3184 137.803 63.6727 138.255 63.9258C138.707 64.1789 139.234 64.3054 139.887 64.3054C140.991 64.3054 141.769 64.0523 142.246 63.5462C142.723 63.0401 142.948 62.0784 142.948 60.6359V54.056H142.923Z" fill="#8E8F8F"/>
<path d="M146.914 65.4695V54.056H151.181C151.934 54.056 152.511 54.0813 152.912 54.1573C153.465 54.2585 153.941 54.4356 154.318 54.6887C154.694 54.9418 154.996 55.3214 155.221 55.8022C155.447 56.2831 155.573 56.7892 155.573 57.3713C155.573 58.3329 155.272 59.1681 154.644 59.8261C154.042 60.5093 152.938 60.8383 151.331 60.8383H148.42V65.4695H146.914ZM148.42 59.4718H151.356C152.335 59.4718 153.013 59.2946 153.414 58.915C153.816 58.5607 154.017 58.0293 154.017 57.3713C154.017 56.8904 153.891 56.4855 153.665 56.1565C153.414 55.8275 153.113 55.5998 152.712 55.4732C152.461 55.3973 151.984 55.372 151.306 55.372H148.42V59.4718Z" fill="#8E8F8F"/>
<path d="M35.4802 65.9504C35.4802 65.9504 37.212 62.4833 37.4629 61.5469C37.4629 61.5469 39.5209 56.5108 38.4417 50.6649C38.4417 50.6649 37.8143 44.0597 30.4105 43.9332C30.4105 43.9332 27.9258 44.0344 25.0898 44.9202C25.0898 44.9202 20.1205 46.717 15.9292 45.1226C15.9292 45.1226 18.4891 46.059 23.2577 44.2875C23.2577 44.2875 29.9085 41.529 33.874 42.1364C33.874 42.1364 29.6074 37.6064 21.0491 36.012C21.0491 36.012 16.5566 34.7973 14.2727 36.6447L11.9637 38.4668C11.9637 38.4668 13.6453 35.8096 15.0758 35.101C15.0758 35.101 8.42495 33.7597 10.0814 27.5089C10.0814 27.5089 9.35357 33.3801 15.7033 33.5066C15.7033 33.5066 25.14 33.6585 27.4741 34.7973C27.4741 34.7973 27.2482 34.6708 26.8968 33.9116C26.8968 33.9116 26.1188 32.2413 26.0686 32.0641L25.7172 31.0772L25.2906 29.4575C25.2906 29.4575 24.5878 25.6361 21.024 25.459C21.024 25.459 19.2922 25.4843 18.3887 25.3831C18.3887 25.3831 15.2264 25.3071 14.599 23.0295C14.599 23.0295 15.3268 24.6998 17.6609 24.7504C17.6609 24.7504 18.7401 24.801 20.4969 24.5479C20.4969 24.5479 23.1573 24.0418 25.2153 26.3194L25.3408 22.574L25.5416 17.6391L25.7423 14.3238L26.0435 17.6644L26.3447 22.0678L26.6458 26.3447C26.6458 26.3447 26.8717 30.1914 28.478 32.545C28.478 32.545 29.3062 34.1393 30.9877 35.6071C30.9877 35.6071 31.7658 36.4929 32.5438 36.8219C32.5438 36.8219 35.8316 38.4162 38.9437 42.3388L35.7563 36.7206C35.7563 36.7206 33.3218 32.1654 32.6442 28.0909C32.6442 28.0909 32.0418 24.5985 30.8874 21.3845L30.4356 20.0433C30.4356 20.0433 29.8834 18.4742 28.9548 16.0953C28.9548 16.0953 28.0011 13.8177 28.7792 12.2487C28.7792 12.2487 28.3274 13.8683 29.4317 15.9435C29.4317 15.9435 31.5399 20.0433 32.1171 21.8148C32.1171 21.8148 32.2928 16.2472 33.4724 13.6912C33.4724 13.6912 32.5438 18.5248 33.1712 23.4091C33.1712 23.4091 33.5477 27.3823 35.5806 32.1401C35.6308 32.2919 35.7563 32.4184 35.8065 32.545C36.2583 33.4307 38.1406 36.999 40.3743 40.2636L41.579 42.3388C41.7295 42.5919 41.8801 42.845 42.0558 43.0727C42.2064 43.3005 42.4323 43.7054 42.4323 44.2116C42.4323 44.4646 42.4323 44.743 42.4323 44.9961C42.4825 45.8059 42.5327 47.5015 42.3821 49.1464C42.4323 49.1211 42.106 58.9909 35.4802 65.9504Z" fill="white"/>
<path d="M25.1406 77.5664C25.1406 77.5664 28.6041 76.2504 33.4981 69.291C33.6487 69.0885 33.7993 68.8607 33.9248 68.633C34.1256 68.3293 34.5272 67.7725 35.1044 67.2664C35.255 67.1399 35.3805 67.0386 35.506 66.8868C36.2087 66.1782 38.5177 63.6981 39.5718 61.7747C39.5718 61.7747 41.68 57.9787 42.0564 55.9035C42.0815 55.701 42.1317 55.4986 42.1819 55.2961C42.4329 54.2332 43.0854 51.2976 43.0854 48.8681C43.0854 48.8681 43.0353 43.503 41.5545 37.5811L40.0235 31.1278C40.0235 31.1278 38.2165 23.8647 38.1412 20.5241C38.1412 20.1192 38.091 19.7143 38.0408 19.3094C37.8149 17.715 37.5138 13.1091 39.7726 6.9342C39.7726 6.9342 38.9945 11.0593 39.1451 13.7671C39.1451 13.7671 39.4212 19.8915 40.6259 23.1055C40.6259 23.1055 41.4541 21.334 43.3866 19.5372C43.3866 19.5372 46.0219 16.8546 45.4195 14.501C45.4195 14.501 46.825 16.475 44.0643 19.9927L42.4831 22.1691C42.4831 22.1691 41.7553 23.232 41.5294 24.0165C41.5294 24.0165 41.0776 25.3072 41.5796 26.5725C41.5796 26.5725 42.458 29.4575 43.3866 32.0642C43.3866 32.0642 44.5411 30.6976 45.3442 29.8878C45.8462 29.3816 46.2979 28.8502 46.6995 28.2681C47.603 26.9521 49.0336 24.7504 49.3599 23.3585C49.3599 23.3585 50.7151 19.6131 50.5395 15.8929C50.5395 15.8929 51.3175 20.4735 50.4391 23.3079C50.3889 23.4598 50.3387 23.6369 50.2885 23.7887C50.0375 24.801 48.883 29.0526 46.3983 31.558L45.3693 32.6715C45.3693 32.6715 44.5411 33.5067 44.6917 34.8733C44.6917 34.8733 44.8925 37.5305 45.3191 38.973C45.3442 39.0996 45.3944 39.2261 45.4195 39.3273C45.6454 40.2637 46.574 44.3634 46.574 44.819C46.574 44.819 46.7999 45.73 46.3983 46.8942C46.3481 47.046 46.298 47.1725 46.2729 47.3244C46.0721 48.1089 45.4195 50.8168 45.3693 51.3229C45.3693 51.3229 44.8925 54.5116 44.8172 55.7517C44.8172 55.9035 44.7921 56.0553 44.7921 56.2072C44.7419 56.8905 44.6164 58.915 44.8172 60.7625C44.8172 60.7625 45.0682 63.5462 45.3693 64.6851C45.3693 64.6851 46.0721 67.3423 46.825 68.6077C46.825 68.6077 47.8289 70.6322 48.8328 71.6445C48.8328 71.6445 50.8406 74.4283 56.1111 76.1998C56.1111 76.1998 57.617 76.7566 58.4954 76.8578L55.4586 78.1991C55.4586 78.1991 43.9639 83.1593 31.2143 79.6669L25.1406 77.5664Z" fill="white"/>
<path d="M55.1085 75.6178C55.1085 75.6178 52.398 74.4283 51.3941 73.416C51.3941 73.416 48.4827 70.8094 47.5541 68.5824C47.5541 68.5824 45.8726 65.3178 45.6467 62.4074C45.6216 62.0278 45.5965 61.6482 45.5463 61.2939C45.3706 60.1045 45.0946 56.7639 45.8726 50.6649C45.8726 50.6649 47.2279 44.1357 47.5541 43.4777C47.5541 43.4777 48.6333 39.2767 50.1392 37.5052C50.1392 37.5052 51.8709 35.1264 53.176 34.0635C53.3015 33.9622 53.4019 33.8863 53.5023 33.7598C54.1297 33.1524 56.3634 30.976 56.8403 29.8878C56.8403 29.8878 58.1202 27.8632 58.2708 25.3325C58.2708 25.3325 58.8983 20.5241 55.8364 16.7787C55.8364 16.7787 59.5006 19.7649 59.601 25.3325C59.601 25.3325 59.9524 29.8372 56.5391 33.7851C56.5391 33.7851 62.4872 30.6976 64.5954 28.9514C64.6707 28.8755 64.746 28.8249 64.8464 28.749C65.499 28.2681 68.8118 25.5856 69.7154 21.0303C69.7154 21.0303 70.2675 25.0035 65.5993 29.8625C65.5993 29.8625 63.6919 31.9123 60.9312 33.6838C60.9312 33.6838 62.4872 33.7851 64.1437 34.2659C64.3696 34.3418 64.5703 34.3924 64.7962 34.4178C65.3233 34.519 66.4025 34.6708 67.4566 34.6708C67.4566 34.6708 69.1632 34.7214 69.8158 32.545C69.8158 32.545 70.4181 34.1141 68.1844 35.1517C68.1844 35.1517 67.2307 35.835 64.5954 35.4047C64.4951 35.3794 64.4198 35.3794 64.3194 35.3541C63.7421 35.2529 61.3829 34.8227 59.8771 35.2276C59.8771 35.2276 56.9156 35.9362 54.4058 38.4669C54.4058 38.4669 52.6741 40.3902 52.5486 40.6939C52.5486 40.6939 52.147 41.5037 51.3941 42.263C51.3941 42.263 49.3863 44.7937 48.3824 47.8305C48.3824 47.8305 46.4498 52.9426 47.0773 57.6497C47.1024 57.8268 47.1275 57.9787 47.1275 58.1558C47.2028 58.8644 47.4788 61.2939 48.1063 63.0148C48.1063 63.0148 48.7086 64.4573 48.8341 66.0263C48.8592 66.4819 48.9094 66.9374 49.0098 67.3676C49.2106 68.3546 49.6121 69.9236 50.1141 70.6069C50.1392 70.6322 52.0215 74.3018 55.1085 75.6178Z" fill="white"/>
<path d="M48.8583 63.4956C48.8583 63.4956 47.6285 60.5094 47.5532 56.9917C47.5532 56.9917 47.3775 53.9548 47.8795 51.6772C47.8795 51.6772 48.8583 46.9447 50.4896 44.2369C50.59 44.085 50.6904 43.9079 50.7657 43.756C50.9665 43.4017 51.619 42.2882 52.2465 41.6556C52.372 41.529 52.4975 41.4278 52.6229 41.3266C52.6229 41.3266 55.8104 38.7452 60.4785 39.5298C60.4785 39.5298 62.2605 39.7828 63.7161 40.289C63.7161 40.289 66.0502 41.0988 67.7568 40.5673C67.7568 40.5673 70.6431 40.0359 71.0446 36.746C71.0446 36.746 71.4964 40.1371 67.9576 41.4784C67.9576 41.4784 66.9788 42.0352 64.1679 41.8327C63.9922 41.8327 63.8416 41.8074 63.6659 41.7821C63.0385 41.6809 61.3569 41.4531 60.4785 41.3772C60.4785 41.3772 56.8394 40.9723 53.4763 43.7813C53.4763 43.7813 50.4646 46.4133 49.8873 49.8551C49.8622 49.9816 49.8371 50.1081 49.812 50.2347C49.7367 50.513 49.6112 51.2976 49.6112 52.6895C49.6112 52.6895 49.6112 56.5108 49.4105 57.928C49.3603 58.3076 49.3352 58.6872 49.3101 59.0922C49.2348 60.4334 49.034 63.0654 48.8583 63.4956Z" fill="white"/>
<path d="M9.70703 20.0686C9.70703 20.0686 9.98311 20.1698 10.5604 21.3593C10.8866 22.0679 11.1125 22.8018 11.5141 23.4851C11.9658 24.2443 12.2419 24.4467 12.5933 24.7251C13.5972 25.4843 14.4003 25.0794 14.9022 24.5733C14.2246 24.3202 11.8654 23.3079 11.4137 21.258C11.4137 21.258 13.3462 24.0165 15.4544 23.8394C15.4795 23.7888 15.5046 23.7634 15.5046 23.7634C17.1359 20.5241 9.70703 20.0686 9.70703 20.0686Z" fill="#E4368B"/>
<path d="M13.4691 25.8132C13.4691 25.8132 13.4189 26.0157 12.6158 26.4712C12.1389 26.7243 11.637 26.9267 11.1852 27.2304C10.6833 27.5847 10.5578 27.7872 10.3821 28.0403C9.90524 28.7742 10.2064 29.3309 10.5829 29.6599C10.7335 29.1791 11.3358 27.4835 12.7162 27.0786C12.7162 27.0786 10.9091 28.5464 11.1099 30.0142C11.135 30.0395 11.1601 30.0395 11.1601 30.0395C13.4691 31.0265 13.4691 25.8132 13.4691 25.8132Z" fill="#F08D03"/>
<path d="M9.15234 35.4806C9.15234 35.4806 9.32803 35.4806 9.85508 36.0879C10.1813 36.4422 10.4323 36.8471 10.7837 37.1761C11.1602 37.5304 11.3609 37.6064 11.6119 37.6823C12.3146 37.91 12.666 37.4545 12.8668 36.999C12.4401 36.999 10.9594 36.9737 10.3319 35.8095C10.3319 35.8095 11.9131 37.0496 13.0425 36.3916C13.0425 36.3663 13.0425 36.341 13.0425 36.341C13.3186 33.8862 9.15234 35.4806 9.15234 35.4806Z" fill="#8D8E8E"/>
<path d="M21.4258 14.7288C21.4258 14.7288 21.6266 14.8553 21.8022 15.9182C21.9026 16.5256 21.9277 17.1582 22.0783 17.7656C22.254 18.4489 22.4297 18.6767 22.6305 18.9551C23.2579 19.7649 23.9606 19.613 24.4375 19.36C23.9606 19.0057 22.3795 17.715 22.4548 16.07C22.4548 16.07 23.3583 18.6007 25.0147 18.9297C25.0398 18.9044 25.0649 18.8791 25.0649 18.8791C27.0477 16.6774 21.4258 14.7288 21.4258 14.7288Z" fill="#8D8E8E"/>
<path d="M30.2356 10.7809C30.2356 10.7809 30.2105 10.8821 29.7085 11.0846C29.4073 11.1858 29.1062 11.2617 28.8301 11.4136C28.5289 11.5654 28.4285 11.6666 28.3281 11.7932C28.027 12.1728 28.2278 12.5018 28.4536 12.7295C28.554 12.4765 28.9305 11.5654 29.7838 11.4389C29.7838 11.4389 28.6544 12.1222 28.7799 12.9826C28.805 12.9826 28.805 13.0079 28.805 13.0079C30.2105 13.7671 30.2356 10.7809 30.2356 10.7809Z" fill="#8D8E8E"/>
<path d="M34.4516 6.2002C34.4516 6.2002 34.5269 6.47857 33.774 7.59209C33.3473 8.25007 32.8203 8.83214 32.4689 9.51543C32.0673 10.2999 32.0171 10.6542 31.9669 11.0845C31.8415 12.3498 32.5944 12.8307 33.272 13.0078C33.1465 12.2992 32.7952 9.74319 34.2759 8.30069C34.2759 8.30069 32.9206 11.3882 34.1755 13.1343C34.2257 13.1343 34.2508 13.1343 34.2508 13.1343C37.89 12.8307 34.4516 6.2002 34.4516 6.2002Z" fill="#224190"/>
<path d="M36.2855 13.2863C36.2855 13.2863 36.2604 13.4887 35.5326 14.0455C35.1059 14.3745 34.629 14.6275 34.2275 15.0071C33.7757 15.4121 33.6753 15.6398 33.5498 15.9182C33.1734 16.7027 33.5498 17.2089 33.9514 17.4872C34.0267 16.9811 34.4032 15.2349 35.7082 14.6528C35.7082 14.6528 34.102 16.3484 34.5287 17.7909C34.5538 17.7909 34.5788 17.8162 34.5788 17.8162C36.9882 18.4489 36.2855 13.2863 36.2855 13.2863Z" fill="#8D8E8E"/>
<path d="M75.0588 34.9745C75.0588 34.9745 74.9333 35.1263 74.0047 35.1263C73.4525 35.1263 72.9255 35.0504 72.3984 35.1263C71.7961 35.2022 71.5702 35.3035 71.3192 35.4553C70.5412 35.8855 70.5663 36.5182 70.742 36.9737C71.0933 36.6194 72.4235 35.43 73.829 35.7084C73.829 35.7084 71.5451 36.1386 71.0431 37.5305C71.0682 37.5558 71.0682 37.5811 71.0682 37.5811C72.6243 39.5551 75.0588 34.9745 75.0588 34.9745Z" fill="#224190"/>
<path d="M54.8329 11.3882C54.8329 11.3882 54.9584 11.5906 54.6824 12.6029C54.5318 13.2103 54.2808 13.7671 54.1804 14.3744C54.0549 15.0577 54.1302 15.3361 54.2055 15.6651C54.4314 16.6268 55.109 16.8039 55.6612 16.7786C55.3851 16.2725 54.5067 14.4503 55.2596 13.0078C55.2596 13.0078 55.0086 15.6398 56.3639 16.6268C56.4141 16.6015 56.4141 16.6015 56.4141 16.6015C59.0242 15.4879 54.8329 11.3882 54.8329 11.3882Z" fill="#8D8E8E"/>
<path d="M68.3837 16.146C68.3837 16.146 68.5092 16.3485 68.2331 17.3607C68.0825 17.9681 67.8316 18.5249 67.7312 19.1322C67.6057 19.8155 67.681 20.0939 67.7563 20.4229C67.9822 21.3846 68.6598 21.5617 69.2119 21.5364C68.9359 21.0303 68.0574 19.2082 68.8104 17.7657C68.8104 17.7657 68.5594 20.3976 69.9147 21.3846C69.9649 21.3593 69.9649 21.3593 69.9649 21.3593C72.575 20.2458 68.3837 16.146 68.3837 16.146Z" fill="#8B3E8F"/>
<path d="M52.5469 18.8538C52.5469 18.8538 52.6975 18.7778 53.4253 19.1321C53.852 19.3346 54.2535 19.613 54.7053 19.7648C55.2072 19.942 55.408 19.9167 55.659 19.8914C56.3868 19.8154 56.5374 19.2587 56.5374 18.7778C56.1609 18.955 54.7806 19.4864 53.7516 18.6766C53.7516 18.6766 55.6841 19.2081 56.4621 18.1705C56.4621 18.1452 56.437 18.1199 56.437 18.1199C55.7594 15.7663 52.5469 18.8538 52.5469 18.8538Z" fill="#8D8E8E"/>
<path d="M17.4609 50.6649C17.4609 50.6649 17.5111 50.4624 18.3896 50.0322C18.8915 49.7791 19.4186 49.602 19.8954 49.3236C20.4225 48.9946 20.573 48.7921 20.7738 48.5391C21.3009 47.8052 20.9997 47.2231 20.6483 46.8688C20.4727 47.3496 19.7699 49.0705 18.3143 49.4248C18.3143 49.4248 20.2719 48.0076 20.1213 46.4639C20.0962 46.4386 20.0711 46.4386 20.0711 46.4386C17.7119 45.2744 17.4609 50.6649 17.4609 50.6649Z" fill="#8D8E8E"/>
<path d="M31.8156 49.7792C31.8156 49.7792 31.7654 49.5514 32.3427 48.6656C32.6941 48.1342 33.0956 47.6787 33.3968 47.1219C33.7231 46.4892 33.7482 46.2109 33.7984 45.8819C33.8987 44.8696 33.2964 44.49 32.7443 44.3381C32.8446 44.9202 33.1207 46.9448 31.9411 48.1089C31.9411 48.1089 33.0203 45.6541 32.0164 44.2622C31.9662 44.2622 31.9411 44.2622 31.9411 44.2622C29.0549 44.49 31.8156 49.7792 31.8156 49.7792Z" fill="#568F32"/>
<path d="M15.6797 39.7575C15.6797 39.7575 15.755 39.5803 16.533 39.2766C16.9848 39.0995 17.4616 38.973 17.9134 38.7452C18.4153 38.4921 18.5659 38.315 18.7416 38.1125C19.2687 37.5051 19.0428 36.9737 18.7416 36.6194C18.5408 37.0496 17.813 38.5174 16.5079 38.7199C16.5079 38.7199 18.34 37.6064 18.3149 36.2398C18.2898 36.2145 18.2647 36.2145 18.2647 36.2145C16.282 34.9997 15.6797 39.7575 15.6797 39.7575Z" fill="#8D8E8E"/>
<path d="M23.5594 30.3938C23.5594 30.3938 23.6096 30.5456 23.1578 31.1277C22.9068 31.4567 22.6057 31.7604 22.3798 32.1147C22.1288 32.5196 22.1037 32.6967 22.0786 32.9245C22.0033 33.5825 22.4551 33.8103 22.8566 33.9115C22.7813 33.5572 22.5555 32.2412 23.4339 31.482C23.4339 31.482 22.6308 33.0764 23.3837 33.9368C23.4088 33.9368 23.4339 33.9368 23.4339 33.9368C25.6425 33.7596 23.5594 30.3938 23.5594 30.3938Z" fill="#8D8E8E"/>
<path d="M21.9541 29.5081C21.9541 29.5081 21.8788 29.3562 22.0796 28.6476C22.2051 28.2174 22.3808 27.8378 22.4561 27.3823C22.5565 26.9014 22.5063 26.699 22.4561 26.4712C22.3055 25.7626 21.8286 25.6361 21.4271 25.6614C21.6278 26.0157 22.2302 27.3317 21.678 28.3693C21.678 28.3693 21.8788 26.4712 20.9251 25.7626C20.9 25.7626 20.8749 25.7879 20.8749 25.7879C18.9675 26.5218 21.9541 29.5081 21.9541 29.5081Z" fill="#8D8E8E"/>
<path d="M30.0841 22.6499C30.0841 22.6499 29.9838 22.7511 29.2559 22.7258C28.8293 22.7005 28.4277 22.6246 28.0261 22.6499C27.5493 22.6752 27.3987 22.7511 27.1728 22.8523C26.5705 23.156 26.5705 23.6368 26.6709 23.9911C26.9469 23.7381 28.0261 22.8776 29.0802 23.156C29.0802 23.156 27.2983 23.3838 26.8716 24.4467C26.8967 24.472 26.8967 24.472 26.8967 24.472C28.0261 26.0916 30.0841 22.6499 30.0841 22.6499Z" fill="#8D8E8E"/>
<path d="M29.2578 25.9651C29.2578 25.9651 29.3833 25.9651 29.7347 26.4206C29.9354 26.6737 30.1111 26.952 30.3621 27.1798C30.6131 27.4329 30.7637 27.5088 30.9394 27.5594C31.4413 27.7619 31.7174 27.5088 31.868 27.2557C31.5668 27.2304 30.4876 27.0533 30.086 26.2688C30.086 26.2688 31.1652 27.2051 32.0186 26.9014C32.0186 26.8761 32.0186 26.8761 32.0186 26.8761C32.3448 25.3577 29.2578 25.9651 29.2578 25.9651Z" fill="#8D8E8E"/>
<path d="M30.4102 33.3295C30.4102 33.3295 30.5607 33.3295 31.0125 33.8862C31.2635 34.1899 31.4894 34.5442 31.7654 34.8479C32.0917 35.1769 32.2674 35.2528 32.4682 35.3287C33.0705 35.5818 33.4219 35.2781 33.6227 34.9491C33.2462 34.8985 31.9411 34.696 31.4392 33.7344C31.4392 33.7344 32.7693 34.8732 33.8234 34.4936C33.8234 34.4683 33.8234 34.443 33.8234 34.443C34.225 32.5702 30.4102 33.3295 30.4102 33.3295Z" fill="#EB6639"/>
<path d="M63.6655 24.5732C63.6655 24.5732 63.6154 24.801 62.6867 25.3325C62.1346 25.6361 61.5824 25.8639 61.0554 26.2435C60.4781 26.6484 60.3276 26.8762 60.1519 27.1799C59.6248 28.0403 59.9762 28.673 60.4029 29.0273C60.5534 28.4705 61.2311 26.5219 62.8122 26.0157C62.8122 26.0157 60.7542 27.7366 61.0052 29.4322C61.0303 29.4575 61.0554 29.4575 61.0554 29.4575C63.7408 30.571 63.6655 24.5732 63.6655 24.5732Z" fill="#074B3B"/>
<path d="M65.4224 21.0303C65.4224 21.0303 65.5479 21.1821 65.4726 22.1185C65.4224 22.6752 65.2969 23.2067 65.2969 23.7634C65.2969 24.3708 65.3973 24.6239 65.4977 24.9023C65.8239 25.7374 66.4765 25.788 66.9533 25.6615C66.6271 25.2566 65.598 23.7887 66.0247 22.3969C66.0247 22.3969 66.2004 24.7504 67.5306 25.4337C67.5557 25.4084 67.5808 25.4084 67.5808 25.4084C69.7392 24.0165 65.4224 21.0303 65.4224 21.0303Z" fill="#8D8E8E"/>
<path d="M45.045 25.3324C45.045 25.3324 44.8944 25.4083 44.6937 26.1928C44.5682 26.6484 44.5431 27.1292 44.3925 27.5594C44.2168 28.0656 44.0913 28.2174 43.9156 28.4199C43.4137 29.0019 42.8866 28.8501 42.5353 28.6223C42.9117 28.3946 44.1666 27.5088 44.1917 26.2435C44.1917 26.2435 43.3886 28.1162 42.1086 28.268C42.0835 28.2427 42.0835 28.2427 42.0835 28.2427C40.7031 26.4965 45.045 25.3324 45.045 25.3324Z" fill="#8D8E8E"/>
<path d="M44.7187 9.86975C44.7187 9.86975 44.6936 10.0469 45.1704 10.7049C45.4465 11.0845 45.7728 11.4135 46.0238 11.8184C46.2998 12.2739 46.3249 12.4764 46.3751 12.7548C46.5006 13.514 46.0489 13.8177 45.6473 13.9695C45.6975 13.5393 45.823 11.9955 44.8944 11.1604C44.8944 11.1604 45.7979 12.9825 45.1202 14.0707C45.0952 14.0707 45.0701 14.0707 45.0701 14.0707C42.8615 13.9695 44.7187 9.86975 44.7187 9.86975Z" fill="#8D8E8E"/>
<path d="M37.5399 25.459C37.5399 25.459 37.5148 25.6614 36.7618 26.2182C36.3352 26.5472 35.8583 26.8003 35.4317 27.1799C34.9799 27.5848 34.8544 27.8125 34.7289 28.0909C34.3525 28.9008 34.7289 29.4069 35.1556 29.6853C35.2309 29.1791 35.6073 27.4076 36.9375 26.8256C36.9375 26.8256 35.3313 28.5465 35.7328 29.989C35.7579 29.989 35.783 30.0143 35.783 30.0143C38.2677 30.6723 37.5399 25.459 37.5399 25.459Z" fill="#8D8E8E"/>
<path d="M36.6856 6.14966C36.6856 6.14966 36.6856 6.32681 37.313 6.83295C37.6644 7.13664 38.0659 7.3644 38.4173 7.7187C38.7938 8.09831 38.8691 8.30076 38.9695 8.52853C39.2706 9.23713 38.8942 9.64204 38.5428 9.86981C38.4926 9.43959 38.2416 7.89585 37.1373 7.31379C37.1373 7.31379 38.4424 8.85752 38.0408 10.0723C38.0157 10.0723 37.9907 10.0723 37.9907 10.0723C35.8574 10.6037 36.6856 6.14966 36.6856 6.14966Z" fill="#8D8E8E"/>
<path d="M75.2373 40.5673C75.2373 40.5673 75.0365 40.5926 74.2836 40.0612C73.8318 39.7322 73.4554 39.3779 72.9785 39.0995C72.4515 38.7958 72.2005 38.7452 71.9244 38.7199C71.046 38.5934 70.6946 39.1248 70.5691 39.5803C71.0711 39.5044 72.8279 39.3273 73.7816 40.4155C73.7816 40.4155 71.6985 39.3779 70.4688 40.213C70.4688 40.2383 70.4688 40.2636 70.4688 40.2636C70.5691 42.7943 75.2373 40.5673 75.2373 40.5673Z" fill="#8D8E8E"/>
<path d="M48.055 31.558C48.055 31.558 47.9044 31.7098 47.8542 32.6968C47.8291 33.2789 47.9044 33.8356 47.8291 34.4177C47.7538 35.0504 47.6284 35.2781 47.4778 35.5565C47.026 36.3663 46.3484 36.341 45.8715 36.1386C46.248 35.759 47.528 34.3671 47.2519 32.874C47.2519 32.874 46.7499 35.3034 45.2692 35.8096C45.2441 35.7843 45.219 35.7843 45.219 35.7843C43.1861 34.0634 48.055 31.558 48.055 31.558Z" fill="#8D8E8E"/>
<path d="M61.9856 35.6072C61.9856 35.6072 62.0107 35.759 61.584 36.3917C61.333 36.746 61.0319 37.075 60.806 37.4799C60.555 37.9101 60.5299 38.1126 60.5048 38.3657C60.4295 39.0743 60.8562 39.3779 61.2327 39.4792C61.1574 39.0743 61.0068 37.6064 61.8601 36.8219C61.8601 36.8219 61.057 38.5681 61.7346 39.5551C61.7597 39.5551 61.7848 39.5551 61.7848 39.5551C63.8679 39.4286 61.9856 35.6072 61.9856 35.6072Z" fill="#8D8E8E"/>
<path d="M19.1425 19.0815C19.1425 19.0815 19.1425 19.3093 18.3895 20.0685C17.9378 20.524 17.4609 20.8783 17.0594 21.3592C16.6076 21.8906 16.5323 22.169 16.4319 22.498C16.1307 23.4597 16.6578 23.9658 17.1597 24.2189C17.1597 23.6368 17.3103 21.5869 18.6907 20.6759C18.6907 20.6759 17.1346 22.8776 17.8374 24.4467C17.8876 24.4467 17.9127 24.4467 17.9127 24.4467C20.7738 24.8516 19.1425 19.0815 19.1425 19.0815Z" fill="white"/>
<path d="M6.46875 25.2059C6.46875 25.2059 6.64443 25.3578 6.69463 26.3701C6.71973 26.9774 6.66953 27.5595 6.76992 28.1669C6.87031 28.8249 6.9958 29.0779 7.17149 29.3563C7.67344 30.1914 8.35107 30.1408 8.85303 29.9384C8.45146 29.5588 7.07109 28.1416 7.34717 26.5725C7.34717 26.5725 7.92441 29.1032 9.48047 29.5841C9.50557 29.5588 9.53066 29.5335 9.53066 29.5335C11.5887 27.686 6.46875 25.2059 6.46875 25.2059Z" fill="white"/>
<path d="M29.207 15.0071C29.207 15.0071 29.3576 14.9312 30.0854 15.2855C30.5121 15.4879 30.9137 15.7663 31.3654 15.9181C31.8674 16.0953 32.0682 16.07 32.3191 16.0447C33.047 15.9688 33.1976 15.412 33.1976 14.9312C32.8211 15.1083 31.4407 15.6398 30.4117 14.8299C30.4117 14.8299 32.3442 15.3614 33.1223 14.3238C33.1223 14.2985 33.0972 14.2732 33.0972 14.2732C32.3944 11.9196 29.207 15.0071 29.207 15.0071Z" fill="white"/>
<path d="M69.7908 28.2933C69.7908 28.2933 69.8159 28.4958 69.2637 29.2297C68.9375 29.6599 68.561 30.0395 68.2598 30.5204C67.9336 31.0518 67.9085 31.2796 67.8583 31.5833C67.7077 32.4437 68.2347 32.8233 68.6865 32.9752C68.6363 32.469 68.5108 30.6975 69.59 29.7611C69.59 29.7611 68.5108 31.8363 69.3139 33.1017C69.339 33.1017 69.3641 33.1017 69.3641 33.1017C71.899 33.0258 69.7908 28.2933 69.7908 28.2933Z" fill="white"/>
<path d="M11.7891 45.5529C11.7891 45.5529 11.9396 45.4769 12.6675 45.8312C13.0941 46.0337 13.4957 46.3121 13.9475 46.4639C14.4494 46.6411 14.6502 46.6158 14.9012 46.5905C15.629 46.5145 15.7796 45.9578 15.7796 45.4769C15.4031 45.6541 14.0228 46.1855 12.9938 45.3757C12.9938 45.3757 14.9263 45.9072 15.7043 44.8696C15.7043 44.8443 15.6792 44.819 15.6792 44.819C15.0016 42.4654 11.7891 45.5529 11.7891 45.5529Z" fill="white"/>
<path d="M23.4093 38.2644C23.4093 38.2644 23.4846 38.4922 23.0078 39.4538C22.7317 40.0106 22.3803 40.5167 22.1545 41.1241C21.9035 41.7821 21.9035 42.0605 21.9286 42.4148C21.9537 43.4271 22.6062 43.7307 23.1584 43.8067C22.9827 43.2499 22.4556 41.2506 23.4846 39.96C23.4846 39.96 22.7317 42.5413 23.8862 43.8067C23.9364 43.8067 23.9615 43.8067 23.9615 43.8067C26.8226 43.174 23.4093 38.2644 23.4093 38.2644Z" fill="white"/>
<path d="M32.0431 29.3816C32.0431 29.3816 31.9176 29.5334 30.989 29.5334C30.4369 29.5334 29.9098 29.4575 29.3828 29.5334C28.7804 29.6094 28.5546 29.7106 28.3036 29.8624C27.5256 30.2926 27.5507 30.9253 27.7263 31.3809C28.0777 31.0266 29.4079 29.8371 30.8133 30.1155C30.8133 30.1155 28.5295 30.5457 28.0275 31.9376C28.0526 31.9629 28.0526 31.9882 28.0526 31.9882C29.6087 33.9622 32.0431 29.3816 32.0431 29.3816Z" fill="white"/>
<path d="M63.9913 19.2841C63.9913 19.2841 63.8909 19.4865 62.8619 19.8155C62.2595 19.9927 61.6572 20.0939 61.0799 20.347C60.4274 20.6253 60.2266 20.8278 60.0007 21.0556C59.298 21.7895 59.5239 22.4728 59.8502 22.9283C60.1262 22.4221 61.2054 20.6506 62.8368 20.5241C62.8368 20.5241 60.4525 21.7389 60.3521 23.4597C60.3772 23.485 60.4023 23.5103 60.4023 23.5103C62.8117 25.1553 63.9913 19.2841 63.9913 19.2841Z" fill="white"/>
<path d="M53.352 24.8516C53.352 24.8516 53.4022 25.0793 54.3309 25.6108C54.883 25.9145 55.4352 26.1422 55.9622 26.5218C56.5394 26.9267 56.69 27.1545 56.8657 27.4582C57.3928 28.3186 57.0414 28.9513 56.6147 29.3056C56.4641 28.7489 55.7865 26.8002 54.2054 26.2941C54.2054 26.2941 56.2634 28.015 56.0124 29.7105C55.9873 29.7358 55.9622 29.7358 55.9622 29.7358C53.2517 30.8493 53.352 24.8516 53.352 24.8516Z" fill="#8D8E8E"/>
<path d="M50.2122 16.6774C50.2122 16.6774 50.0616 16.8545 49.0075 16.9557C48.38 17.0064 47.7777 16.9557 47.1503 17.0823C46.4726 17.2088 46.2216 17.3607 45.9205 17.5378C45.0672 18.0946 45.1424 18.8032 45.3683 19.3346C45.7448 18.9044 47.1754 17.4113 48.8067 17.639C48.8067 17.639 46.2216 18.297 45.7448 19.9673C45.7699 19.9926 45.795 20.0179 45.795 20.0179C47.7777 22.1437 50.2122 16.6774 50.2122 16.6774Z" fill="white"/>
<path d="M65.927 36.3157C65.927 36.3157 65.9521 36.4675 65.5254 37.1002C65.2744 37.4545 64.9733 37.7835 64.7474 38.1884C64.4964 38.6186 64.4713 38.8211 64.4462 39.0742C64.3709 39.7828 64.7976 40.0864 65.174 40.1877C65.0988 39.7828 64.9482 38.3149 65.8015 37.5304C65.8015 37.5304 64.9984 39.2766 65.676 40.2636C65.7011 40.2636 65.7262 40.2636 65.7262 40.2636C67.7842 40.1371 65.927 36.3157 65.927 36.3157Z" fill="white"/>
<path d="M71.1438 45.9071C71.1438 45.9071 70.9932 45.7805 70.8928 44.8695C70.8426 44.338 70.8426 43.7813 70.7422 43.2498C70.6168 42.6425 70.4913 42.44 70.3156 42.1869C69.8136 41.453 69.2113 41.5289 68.7595 41.7567C69.136 42.0857 70.4411 43.3004 70.2905 44.7176C70.2905 44.7176 69.663 42.4653 68.2325 42.0857C68.2074 42.111 68.1823 42.1363 68.1823 42.1363C66.3752 43.9078 71.1438 45.9071 71.1438 45.9071Z" fill="white"/>
<path d="M6.62109 32.6462C6.62109 32.6462 6.77168 32.5703 7.49951 32.9246C7.92617 33.1271 8.32773 33.4055 8.77949 33.5573C9.28145 33.7345 9.48223 33.7091 9.7332 33.6838C10.461 33.6079 10.6116 33.0512 10.6116 32.5703C10.2352 32.7475 8.85479 33.2789 7.82578 32.4691C7.82578 32.4691 9.7583 33.0005 10.5363 31.963C10.5363 31.9376 10.5112 31.9123 10.5112 31.9123C9.83359 29.5588 6.62109 32.6462 6.62109 32.6462Z" fill="#8D8E8E"/>
<path d="M27.3488 7.46558C27.3488 7.46558 27.3237 7.74395 26.2947 8.6044C25.6924 9.11054 25.0398 9.51545 24.4877 10.0722C23.8602 10.7049 23.7348 11.0086 23.5591 11.4135C23.0822 12.5776 23.6595 13.2862 24.2618 13.6405C24.3371 12.9066 24.7638 10.3759 26.5959 9.41422C26.5959 9.41422 24.4124 11.9702 25.09 13.9948C25.1402 14.0201 25.1653 14.0201 25.1653 14.0201C28.7292 14.83 27.3488 7.46558 27.3488 7.46558Z" fill="#8B3E8F"/>
<path d="M29.2067 17.1329C29.2067 17.1329 29.1314 17.2595 28.4789 17.4619C28.1024 17.5885 27.7008 17.6391 27.3244 17.7909C26.8977 17.9681 26.7722 18.0946 26.6216 18.2464C26.1448 18.702 26.2954 19.1575 26.4961 19.4612C26.6718 19.1322 27.3997 18.0187 28.4538 17.9428C28.4538 17.9428 26.8977 18.702 26.8224 19.8155C26.8475 19.8408 26.8475 19.8408 26.8475 19.8408C28.3534 20.929 29.2067 17.1329 29.2067 17.1329Z" fill="#8D8E8E"/>
<path d="M63.5645 15.083C63.5645 15.083 63.3889 15.2855 62.1089 15.3108C61.356 15.3108 60.6281 15.2095 59.8752 15.3108C59.047 15.412 58.7458 15.5638 58.3944 15.7663C57.3403 16.3484 57.3654 17.2088 57.5913 17.8668C58.0933 17.386 59.9003 15.741 61.8328 16.1459C61.8328 16.1459 58.6956 16.728 57.9929 18.6513C58.018 18.7019 58.0431 18.7019 58.0431 18.7019C60.2015 21.4098 63.5645 15.083 63.5645 15.083Z" fill="#EB6639"/>
<path d="M18.5642 40.213C18.5642 40.213 18.5893 40.4155 18.0372 41.1494C17.7109 41.5796 17.3344 41.9592 17.0333 42.44C16.707 42.9715 16.6819 43.1993 16.6317 43.5029C16.4811 44.3634 17.0082 44.743 17.4599 44.8948C17.4097 44.3887 17.2842 42.6172 18.3634 41.6808C18.3634 41.6808 17.2842 43.756 18.0874 45.0214C18.1125 45.0214 18.1376 45.0214 18.1376 45.0214C20.6724 44.9708 18.5642 40.213 18.5642 40.213Z" fill="#D12C30"/>
<path d="M27.7011 49.8297C27.7011 49.8297 27.5756 49.6778 27.6007 48.7415C27.6258 48.1847 27.7011 47.6786 27.676 47.1218C27.6258 46.5144 27.5254 46.2614 27.4 45.983C27.0235 45.1479 26.4211 45.0972 25.9694 45.1985C26.2957 45.6034 27.3749 47.0965 27.0486 48.4884C27.0486 48.4884 26.7474 46.1348 25.4172 45.4262C25.3921 45.4515 25.367 45.4515 25.367 45.4515C23.4094 46.7675 27.7011 49.8297 27.7011 49.8297Z" fill="#8D8E8E"/>
<path d="M14.6775 39.7321C14.6775 39.7321 14.6022 39.6562 14.6022 39.1501C14.6022 38.8464 14.6524 38.5427 14.6273 38.239C14.6022 37.91 14.5269 37.7835 14.4516 37.657C14.2257 37.2521 13.8493 37.3027 13.5732 37.4292C13.774 37.6064 14.4516 38.2643 14.2759 39.0742C14.2759 39.0742 14.05 37.8088 13.2469 37.6317C13.2218 37.657 13.2218 37.657 13.2218 37.657C12.0422 38.6946 14.6775 39.7321 14.6775 39.7321Z" fill="#8D8E8E"/>
<path d="M27.273 41.782C27.273 41.782 27.2981 41.6555 27.8754 41.3012C28.2016 41.0988 28.5781 40.9469 28.9044 40.7191C29.2557 40.4661 29.331 40.3142 29.4314 40.1371C29.7075 39.6056 29.4063 39.226 29.0801 39.0236C29.0299 39.3779 28.7538 40.5673 27.7248 40.8963C27.7248 40.8963 28.9546 39.8081 28.6283 38.7958C28.6032 38.7958 28.5781 38.7705 28.5781 38.7705C26.6456 38.1631 27.273 41.782 27.273 41.782Z" fill="#8D8E8E"/>
<path d="M17.8896 27.1293C17.8896 27.1293 17.9649 27.3823 17.1617 28.4452C16.71 29.0526 16.1327 29.6094 15.7312 30.2674C15.2794 31.0013 15.2543 31.3303 15.2041 31.7352C15.0786 32.9246 15.9068 33.3548 16.6347 33.5067C16.4841 32.8487 16.1076 30.4698 17.7139 29.1032C17.7139 29.1032 16.2582 31.9882 17.6135 33.6079C17.6637 33.6079 17.7139 33.6079 17.7139 33.6079C21.6542 33.2536 17.8896 27.1293 17.8896 27.1293Z" fill="#00ABA8"/>
<path d="M24.2364 21.6628C24.2364 21.6628 24.2364 21.8147 23.6842 22.2449C23.383 22.498 23.0317 22.7004 22.7305 23.0041C22.4042 23.3331 22.3289 23.485 22.2536 23.6874C22.0027 24.2948 22.3038 24.6491 22.605 24.8515C22.6552 24.4719 22.856 23.156 23.8097 22.6751C23.8097 22.6751 22.6803 23.9911 23.0317 25.054C23.0568 25.054 23.0819 25.054 23.0819 25.054C24.9391 25.4842 24.2364 21.6628 24.2364 21.6628Z" fill="#8D8E8E"/>
<path d="M36.3369 20.1951C36.3369 20.1951 36.2867 20.3722 35.5589 20.7518C35.1322 20.9796 34.6805 21.1314 34.2538 21.4098C33.802 21.7135 33.6766 21.8906 33.526 22.1184C33.0742 22.7764 33.3503 23.2572 33.6766 23.5609C33.8271 23.1307 34.4044 21.6376 35.6342 21.2833C35.6342 21.2833 33.9777 22.5486 34.1283 23.8899C34.1534 23.9152 34.1785 23.9152 34.1785 23.9152C36.2114 24.8516 36.3369 20.1951 36.3369 20.1951Z" fill="#568F32"/>
<path d="M72.7013 22.0425C72.7013 22.0425 72.5507 22.1184 72.3499 22.9029C72.2244 23.3584 72.1993 23.8393 72.0487 24.2695C71.8731 24.7757 71.7476 24.9275 71.5719 25.1299C71.0699 25.712 70.5429 25.5602 70.1915 25.3324C70.568 25.1046 71.8229 24.2189 71.848 22.9535C71.848 22.9535 71.0448 24.8263 69.7649 24.9781C69.7398 24.9528 69.7398 24.9528 69.7398 24.9528C68.3594 23.2066 72.7013 22.0425 72.7013 22.0425Z" fill="#8D8E8E"/>
<path d="M53.1758 21.1061C53.1758 21.1061 53.4017 21.1567 53.9538 22.0678C54.2801 22.5992 54.506 23.1813 54.8824 23.6874C55.3091 24.2442 55.535 24.396 55.8361 24.5732C56.6895 25.1046 57.3169 24.6997 57.6683 24.2695C57.1161 24.1176 55.1585 23.485 54.6314 21.9159C54.6314 21.9159 56.3632 23.9658 58.0447 23.6621C58.0698 23.6115 58.0698 23.6115 58.0698 23.6115C59.1239 20.8783 53.1758 21.1061 53.1758 21.1061Z" fill="#D12C30"/>
<path d="M40.6523 14.5262C40.6523 14.5262 40.7778 14.6781 41.7064 14.6781C42.2586 14.6781 42.7856 14.6022 43.3127 14.6781C43.915 14.754 44.1409 14.8552 44.3919 15.0071C45.1699 15.4373 45.1448 16.07 44.9691 16.5255C44.6178 16.1712 43.2876 14.9818 41.8821 15.2602C41.8821 15.2602 44.166 15.6904 44.668 17.0823C44.6429 17.1076 44.6429 17.1329 44.6429 17.1329C43.0868 19.1068 40.6523 14.5262 40.6523 14.5262Z" fill="#8D8E8E"/>
<path d="M45.4219 21.6882C45.4219 21.6882 45.5725 21.8148 45.5976 22.7005C45.6227 23.2067 45.5725 23.7128 45.6227 24.2443C45.6979 24.8263 45.8234 25.0288 45.9489 25.2565C46.3756 25.9651 46.9528 25.9398 47.3795 25.7627C47.0281 25.4337 45.8736 24.2189 46.1246 22.8524C46.1246 22.8524 46.5764 25.0035 47.9065 25.459C47.9316 25.4337 47.9567 25.4337 47.9567 25.4337C49.7889 23.89 45.4219 21.6882 45.4219 21.6882Z" fill="#E4368B"/>
<path d="M52.7505 11.3376C52.7505 11.3376 52.7505 11.5401 51.9976 12.1981C51.5709 12.5777 51.094 12.8814 50.6925 13.2863C50.2407 13.7418 50.1403 13.9949 50.0399 14.2733C49.6886 15.1337 50.1403 15.6399 50.567 15.8929C50.6172 15.3615 50.8933 13.4888 52.2234 12.7802C52.2234 12.7802 50.6423 14.6782 51.1693 16.146C51.1944 16.146 51.2195 16.1713 51.2195 16.1713C53.8548 16.7281 52.7505 11.3376 52.7505 11.3376Z" fill="#8D8E8E"/>
<path d="M38.9703 3.94788C38.9703 3.94788 39.0456 4.07441 38.8699 4.7577C38.7695 5.16262 38.5938 5.51692 38.5436 5.92183C38.4683 6.37736 38.4934 6.55451 38.5436 6.78227C38.6942 7.44026 39.146 7.54149 39.5224 7.51618C39.3467 7.18719 38.7444 5.97245 39.2463 5.01078C39.2463 5.01078 39.0707 6.75697 39.9742 7.41495C39.9993 7.41495 40.0244 7.38964 40.0244 7.38964C41.7561 6.65574 38.9703 3.94788 38.9703 3.94788Z" fill="#8D8E8E"/>
<path d="M43.7145 8.073C43.7145 8.073 43.6141 8.30076 42.5349 8.62975C41.9074 8.83221 41.28 8.93344 40.6526 9.18651C39.9749 9.46489 39.749 9.69265 39.4981 9.94572C38.7451 10.7049 38.9961 11.4388 39.3475 11.9197C39.6486 11.3882 40.7529 9.5155 42.4847 9.36366C42.4847 9.36366 39.9749 10.6543 39.8745 12.4511C39.8996 12.4764 39.9247 12.5017 39.9247 12.5017C42.4596 14.2479 43.7145 8.073 43.7145 8.073Z" fill="#074B3B"/>
<path d="M68.1823 35.6831C68.1823 35.6831 68.2827 35.8096 68.1823 36.5689C68.1321 36.9991 68.0066 37.4293 67.9815 37.8848C67.9564 38.391 68.0317 38.5681 68.107 38.7959C68.358 39.4792 68.8599 39.5298 69.2615 39.4539C69.0105 39.1249 68.2074 37.9101 68.6089 36.7966C68.6089 36.7966 68.6842 38.72 69.7383 39.302C69.7634 39.2767 69.7885 39.2767 69.7885 39.2767C71.5704 38.2138 68.1823 35.6831 68.1823 35.6831Z" fill="#8D8E8E"/>
<path d="M51.1438 28.5718C51.1438 28.5718 51.1438 28.7995 51.9469 29.5081C52.4238 29.9131 52.9257 30.242 53.3775 30.7229C53.8543 31.229 53.9547 31.5074 54.0802 31.8111C54.4316 32.7475 53.9547 33.3042 53.4779 33.5826C53.4277 33.0005 53.1516 30.9506 51.6959 30.1661C51.6959 30.1661 53.4026 32.2413 52.8002 33.861C52.75 33.861 52.7249 33.8863 52.7249 33.8863C49.8889 34.443 51.1438 28.5718 51.1438 28.5718Z" fill="#00ABA8"/>
<path d="M65.75 46.8182C65.75 46.8182 65.6496 46.6411 65.9257 45.7553C66.1014 45.2239 66.3273 44.743 66.4277 44.2116C66.5532 43.6042 66.5281 43.3764 66.4528 43.0727C66.3022 42.2123 65.6998 42.0352 65.1979 42.0352C65.4238 42.4907 66.1265 44.1356 65.4238 45.3757C65.4238 45.3757 65.75 43.0474 64.5955 42.1364C64.5704 42.1364 64.5453 42.1617 64.5453 42.1617C62.1862 43.0474 65.75 46.8182 65.75 46.8182Z" fill="#F08D03"/>
<path d="M65.9504 30.5963C65.9504 30.5963 65.9755 30.7482 65.5489 31.3808C65.2979 31.7351 64.9967 32.0641 64.7708 32.469C64.5198 32.8993 64.4948 33.1017 64.4697 33.3548C64.3944 34.0634 64.821 34.3671 65.1975 34.4683C65.1222 34.0634 64.9716 32.5956 65.8249 31.8111C65.8249 31.8111 65.0218 33.5572 65.6994 34.5442C65.7245 34.5442 65.7496 34.5442 65.7496 34.5442C67.8327 34.4177 65.9504 30.5963 65.9504 30.5963Z" fill="#8D8E8E"/>
<path d="M37.8138 31.1278C37.8138 31.1278 37.8138 31.2797 37.3621 31.7605C37.1111 32.0389 36.8099 32.2919 36.5589 32.5956C36.308 32.9499 36.2578 33.1018 36.1825 33.3295C36.0319 33.9369 36.3582 34.2406 36.6593 34.3671C36.6593 34.0128 36.6844 32.7222 37.5377 32.1401C37.5377 32.1401 36.6342 33.532 37.1111 34.4937C37.1362 34.4937 37.1613 34.4937 37.1613 34.4937C38.9683 34.6455 37.8138 31.1278 37.8138 31.1278Z" fill="#8D8E8E"/>
</svg>
