<svg width="220" height="82" viewBox="0 0 220 82" fill="none" xmlns="http://www.w3.org/2000/svg">
<path d="M40.8535 80.7298C62.754 80.7298 80.5078 62.8278 80.5078 40.7445C80.5078 18.6613 62.754 0.759277 40.8535 0.759277C18.9531 0.759277 1.19922 18.6613 1.19922 40.7445C1.19922 62.8278 18.9531 80.7298 40.8535 80.7298Z" fill="#C8DEEE"/>
<path d="M40.8545 81.4889C18.5678 81.4889 0.447266 63.2172 0.447266 40.7445C0.447266 18.2717 18.5678 0 40.8545 0C63.1412 0 81.2617 18.2717 81.2617 40.7445C81.2617 63.2172 63.1412 81.4889 40.8545 81.4889ZM40.8545 1.51843C19.396 1.51843 1.95312 19.1069 1.95312 40.7445C1.95312 62.3821 19.396 79.9705 40.8545 79.9705C62.313 79.9705 79.7559 62.3821 79.7559 40.7445C79.7559 19.1069 62.313 1.51843 40.8545 1.51843Z" fill="white"/>
<path d="M90.4219 0.885742H89.418V80.5779H90.4219V0.885742Z" fill="#8B8C8D"/>
<path d="M104.779 22.726V21.3848H109.573V25.6111C108.845 26.1931 108.067 26.6487 107.289 26.9523C106.511 27.256 105.708 27.4079 104.88 27.4079C103.775 27.4079 102.746 27.1801 101.843 26.6993C100.939 26.2184 100.237 25.5351 99.7848 24.6241C99.333 23.713 99.082 22.7007 99.082 21.5872C99.082 20.4737 99.3079 19.4361 99.7848 18.4745C100.237 17.5128 100.914 16.8042 101.767 16.3233C102.621 15.8425 103.625 15.6147 104.754 15.6147C105.582 15.6147 106.31 15.7413 106.963 16.0197C107.615 16.298 108.142 16.6523 108.519 17.1332C108.895 17.614 109.171 18.2214 109.372 19.0059L108.017 19.3855C107.841 18.8034 107.64 18.3479 107.389 18.0189C107.138 17.6899 106.787 17.4116 106.31 17.2091C105.833 17.0066 105.331 16.9054 104.754 16.9054C104.076 16.9054 103.474 17.0066 102.972 17.2091C102.47 17.4116 102.069 17.6899 101.767 18.0442C101.466 18.3985 101.215 18.7528 101.065 19.1831C100.789 19.8916 100.638 20.6509 100.638 21.486C100.638 22.4983 100.814 23.3587 101.165 24.042C101.517 24.7253 102.018 25.2315 102.671 25.5604C103.324 25.8894 104.051 26.0666 104.779 26.0666C105.432 26.0666 106.059 25.9401 106.687 25.687C107.314 25.4339 107.766 25.1555 108.092 24.8772V22.7514H104.779V22.726Z" fill="#8E8F8F"/>
<path d="M111.73 27.205V15.7915H113.236V25.8637H118.808V27.205H111.73Z" fill="#8E8F8F"/>
<path d="M120.615 27.205V15.7915H128.797V17.1328H122.121V20.6252H128.37V21.9664H122.121V25.8384H129.073V27.1797H120.615V27.205Z" fill="#8E8F8F"/>
<path d="M131.156 27.205V15.7915H139.338V17.1328H132.662V20.6252H138.911V21.9664H132.662V25.8384H139.614V27.1797H131.156V27.205Z" fill="#8E8F8F"/>
<path d="M141.17 23.5358L142.575 23.4093C142.651 23.9913 142.801 24.4468 143.052 24.8265C143.303 25.1808 143.68 25.4844 144.182 25.7122C144.684 25.94 145.286 26.0412 145.913 26.0412C146.491 26.0412 146.993 25.9653 147.419 25.7881C147.846 25.611 148.172 25.3832 148.398 25.0795C148.599 24.7758 148.724 24.4469 148.724 24.0926C148.724 23.7383 148.624 23.4093 148.423 23.1562C148.222 22.8778 147.871 22.6753 147.394 22.4729C147.093 22.3464 146.415 22.1692 145.386 21.9161C144.357 21.6631 143.629 21.4353 143.203 21.2075C142.651 20.9292 142.249 20.5749 141.998 20.1446C141.722 19.7144 141.597 19.2589 141.597 18.7274C141.597 18.1454 141.747 17.6139 142.073 17.1078C142.4 16.6016 142.877 16.222 143.504 15.969C144.131 15.7159 144.809 15.5894 145.587 15.5894C146.415 15.5894 147.168 15.7159 147.796 15.9943C148.448 16.2726 148.925 16.6776 149.276 17.209C149.628 17.7405 149.804 18.3478 149.829 19.0058L148.398 19.107C148.323 18.3731 148.072 17.8417 147.62 17.4621C147.168 17.0825 146.516 16.9053 145.637 16.9053C144.734 16.9053 144.081 17.0825 143.655 17.4115C143.228 17.7405 143.027 18.1454 143.027 18.6262C143.027 19.0311 143.178 19.3854 143.479 19.6385C143.755 19.8916 144.508 20.1699 145.738 20.4483C146.967 20.7267 147.796 20.9798 148.247 21.1822C148.9 21.4859 149.402 21.8655 149.703 22.3464C150.004 22.8272 150.18 23.3586 150.18 23.966C150.18 24.5734 150.004 25.1554 149.653 25.6869C149.302 26.2183 148.825 26.6486 148.172 26.9523C147.52 27.2559 146.792 27.4078 145.989 27.4078C144.96 27.4078 144.106 27.2559 143.404 26.9523C142.701 26.6486 142.174 26.193 141.772 25.5857C141.371 24.9783 141.195 24.295 141.17 23.5358Z" fill="#8E8F8F"/>
<path d="M151.762 21.6377C151.762 19.7396 152.264 18.2718 153.268 17.1836C154.271 16.0954 155.577 15.564 157.183 15.564C158.237 15.564 159.166 15.817 160.019 16.3232C160.847 16.8293 161.5 17.5379 161.926 18.4237C162.378 19.3347 162.579 20.347 162.579 21.4858C162.579 22.65 162.353 23.6876 161.876 24.5986C161.399 25.5097 160.747 26.193 159.918 26.6738C159.065 27.1546 158.162 27.3824 157.158 27.3824C156.104 27.3824 155.15 27.1293 154.297 26.5979C153.468 26.0664 152.816 25.3578 152.389 24.4721C151.962 23.5863 151.762 22.65 151.762 21.6377ZM153.318 21.663C153.318 23.0296 153.694 24.1178 154.422 24.9023C155.15 25.6868 156.079 26.0917 157.183 26.0917C158.312 26.0917 159.241 25.6868 159.969 24.9023C160.696 24.0925 161.073 22.979 161.073 21.5111C161.073 20.5748 160.922 19.7649 160.596 19.0817C160.295 18.3984 159.818 17.8416 159.241 17.462C158.638 17.0824 157.961 16.8799 157.233 16.8799C156.179 16.8799 155.25 17.2595 154.497 17.9934C153.744 18.7274 153.318 19.9421 153.318 21.663Z" fill="#8E8F8F"/>
<path d="M164.512 27.205V15.7915H166.043L171.991 24.7502V15.7915H173.421V27.205H171.89L165.942 18.2463V27.205H164.512Z" fill="#8E8F8F"/>
<path d="M99.5078 46.3373V34.9238H104.527C105.531 34.9238 106.309 35.0251 106.836 35.2275C107.363 35.43 107.79 35.7843 108.091 36.3157C108.417 36.8472 108.568 37.4039 108.568 38.0366C108.568 38.8464 108.317 39.5297 107.79 40.0865C107.263 40.6432 106.46 40.9975 105.381 41.1494C105.782 41.3518 106.083 41.529 106.284 41.7061C106.711 42.1111 107.137 42.6172 107.539 43.2246L109.497 46.3373H107.614L106.108 43.9585C105.682 43.2752 105.305 42.7437 105.029 42.3894C104.753 42.0351 104.502 41.7821 104.276 41.6302C104.05 41.4784 103.825 41.3771 103.599 41.3265C103.423 41.3012 103.147 41.2759 102.771 41.2759H101.039V46.3373H99.5078ZM101.014 39.9599H104.226C104.904 39.9599 105.456 39.884 105.832 39.7575C106.209 39.6056 106.51 39.3779 106.711 39.0742C106.912 38.7705 107.012 38.4162 107.012 38.0619C107.012 37.5305 106.811 37.0749 106.435 36.7206C106.058 36.3663 105.431 36.1892 104.603 36.1892H101.014V39.9599Z" fill="#8E8F8F"/>
<path d="M110.953 46.3373V34.9238H119.135V36.2651H112.459V39.7575H118.708V41.0988H112.459V44.9708H119.411V46.312H110.953V46.3373Z" fill="#8E8F8F"/>
<path d="M129.525 42.3386L131.031 42.7182C130.705 43.9583 130.153 44.8947 129.325 45.5526C128.496 46.2106 127.518 46.5396 126.338 46.5396C125.108 46.5396 124.129 46.2865 123.351 45.7804C122.598 45.2743 121.996 44.5657 121.595 43.604C121.193 42.6423 120.992 41.63 120.992 40.5418C120.992 39.3524 121.218 38.3148 121.67 37.4291C122.122 36.5433 122.749 35.86 123.602 35.4045C124.431 34.949 125.359 34.7212 126.338 34.7212C127.467 34.7212 128.421 34.9996 129.199 35.5816C129.977 36.1637 130.504 36.9735 130.805 38.0364L129.325 38.3907C129.074 37.5556 128.672 36.9482 128.17 36.5686C127.668 36.189 127.041 36.0119 126.288 36.0119C125.409 36.0119 124.682 36.2143 124.104 36.6445C123.527 37.0748 123.1 37.6315 122.875 38.3401C122.649 39.0487 122.523 39.7826 122.523 40.5418C122.523 41.5035 122.674 42.3639 122.95 43.0725C123.226 43.8064 123.678 44.3379 124.255 44.6922C124.832 45.0465 125.485 45.2236 126.187 45.2236C127.016 45.2236 127.743 44.9706 128.321 44.4897C128.923 44.0089 129.325 43.3003 129.525 42.3386Z" fill="#8E8F8F"/>
<path d="M132.887 46.3373V34.9238H137.906C138.91 34.9238 139.688 35.0251 140.215 35.2275C140.742 35.43 141.169 35.7843 141.47 36.3157C141.796 36.8472 141.947 37.4039 141.947 38.0366C141.947 38.8464 141.696 39.5297 141.169 40.0865C140.642 40.6432 139.839 40.9975 138.76 41.1494C139.161 41.3518 139.462 41.529 139.663 41.7061C140.09 42.1111 140.516 42.6172 140.918 43.2246L142.876 46.3373H140.993L139.487 43.9585C139.061 43.2752 138.684 42.7437 138.408 42.3894C138.132 42.0351 137.881 41.7821 137.655 41.6302C137.429 41.4784 137.204 41.3771 136.978 41.3265C136.802 41.3012 136.526 41.2759 136.149 41.2759H134.418V46.3373H132.887ZM134.393 39.9599H137.605C138.283 39.9599 138.835 39.884 139.211 39.7575C139.588 39.6056 139.889 39.3779 140.09 39.0742C140.291 38.7705 140.391 38.4162 140.391 38.0619C140.391 37.5305 140.19 37.0749 139.814 36.7206C139.437 36.3663 138.81 36.1892 137.982 36.1892H134.393V39.9599Z" fill="#8E8F8F"/>
<path d="M151.71 34.9238H153.216V41.529C153.216 42.6678 153.091 43.5789 152.84 44.2622C152.589 44.9455 152.112 45.4769 151.434 45.9071C150.757 46.3373 149.878 46.5398 148.799 46.5398C147.745 46.5398 146.867 46.3627 146.189 45.983C145.511 45.6034 145.034 45.072 144.733 44.3887C144.432 43.7054 144.307 42.7437 144.307 41.529V34.9238H145.812V41.5037C145.812 42.4907 145.913 43.2246 146.089 43.7054C146.264 44.1862 146.591 44.5405 147.042 44.7936C147.494 45.0467 148.021 45.1732 148.674 45.1732C149.778 45.1732 150.556 44.9201 151.033 44.414C151.51 43.9079 151.736 42.9462 151.736 41.5037V34.9238H151.71Z" fill="#8E8F8F"/>
<path d="M155.977 46.3373V34.9238H157.482V46.3373H155.977Z" fill="#8E8F8F"/>
<path d="M162.98 46.3373V36.2651H159.24V34.9238H168.225V36.2651H164.486V46.3373H162.98Z" fill="#8E8F8F"/>
<path d="M169.73 46.3373V34.9238H171.989L174.675 42.9968C174.926 43.756 175.101 44.3128 175.227 44.6924C175.352 44.2875 175.553 43.6548 175.829 42.8703L178.54 34.9238H180.548V46.3373H179.092V36.7966L175.779 46.3373H174.424L171.161 36.6194V46.3373H169.73Z" fill="#8E8F8F"/>
<path d="M182.957 46.3373V34.9238H191.139V36.2651H184.463V39.7575H190.712V41.0988H184.463V44.9708H191.415V46.312H182.957V46.3373Z" fill="#8E8F8F"/>
<path d="M193.473 46.3373V34.9238H195.004L200.952 43.8826V34.9238H202.382V46.3373H200.851L194.903 37.3786V46.3373H193.473Z" fill="#8E8F8F"/>
<path d="M207.779 46.3373V36.2651H204.039V34.9238H212.999V36.2651H209.259V46.3373H207.779Z" fill="#8E8F8F"/>
<path d="M104.779 60.9902V59.6489H109.573V63.8752C108.845 64.4573 108.067 64.9128 107.289 65.2165C106.511 65.5202 105.708 65.672 104.88 65.672C103.775 65.672 102.746 65.4443 101.843 64.9634C100.939 64.4826 100.237 63.7993 99.7848 62.8882C99.333 61.9772 99.082 60.9649 99.082 59.8514C99.082 58.7379 99.3079 57.7003 99.7848 56.7386C100.237 55.7769 100.914 55.0683 101.767 54.5875C102.621 54.1067 103.625 53.8789 104.754 53.8789C105.582 53.8789 106.31 54.0054 106.963 54.2838C107.615 54.5622 108.142 54.9165 108.519 55.3973C108.895 55.8782 109.171 56.4855 109.372 57.2701L108.017 57.6497C107.841 57.0676 107.64 56.6121 107.389 56.2831C107.138 55.9541 106.787 55.6757 106.31 55.4733C105.833 55.2708 105.331 55.1696 104.754 55.1696C104.076 55.1696 103.474 55.2708 102.972 55.4733C102.47 55.6757 102.069 55.9541 101.767 56.3084C101.466 56.6627 101.215 57.017 101.065 57.4472C100.789 58.1558 100.638 58.915 100.638 59.7502C100.638 60.7624 100.814 61.6229 101.165 62.3062C101.517 62.9895 102.018 63.4956 102.671 63.8246C103.324 64.1536 104.051 64.3307 104.779 64.3307C105.432 64.3307 106.059 64.2042 106.687 63.9511C107.314 63.6981 107.766 63.4197 108.092 63.1413V61.0155H104.779V60.9902Z" fill="#8E8F8F"/>
<path d="M111.807 65.4692V54.0557H116.826C117.83 54.0557 118.608 54.1569 119.135 54.3594C119.662 54.5618 120.089 54.9161 120.39 55.4476C120.691 55.979 120.867 56.5358 120.867 57.1684C120.867 57.9783 120.616 58.6616 120.089 59.2183C119.562 59.7751 118.759 60.1294 117.679 60.2812C118.081 60.4837 118.382 60.6608 118.583 60.838C119.01 61.2429 119.436 61.749 119.838 62.3564L121.796 65.4692H119.913L118.407 63.0903C117.981 62.407 117.604 61.8756 117.328 61.5213C117.052 61.167 116.801 60.9139 116.575 60.7621C116.349 60.6102 116.123 60.509 115.898 60.4584C115.722 60.4331 115.446 60.4078 115.069 60.4078H113.338V65.4692H111.807ZM113.312 59.0918H116.525C117.203 59.0918 117.755 59.0159 118.131 58.8893C118.508 58.7375 118.809 58.5097 119.01 58.206C119.21 57.9023 119.311 57.548 119.311 57.1937C119.311 56.6623 119.11 56.2068 118.734 55.8525C118.357 55.4982 117.73 55.321 116.901 55.321H113.312V59.0918Z" fill="#8E8F8F"/>
<path d="M122.75 59.9018C122.75 58.0038 123.252 56.536 124.256 55.4478C125.26 54.3849 126.565 53.8281 128.171 53.8281C129.225 53.8281 130.154 54.0812 131.007 54.5873C131.86 55.0935 132.488 55.8021 132.915 56.6878C133.366 57.5989 133.567 58.6112 133.567 59.75C133.567 60.9141 133.341 61.9517 132.864 62.8628C132.387 63.7738 131.735 64.4571 130.907 64.938C130.053 65.4188 129.15 65.6465 128.146 65.6465C127.092 65.6465 126.138 65.3935 125.285 64.862C124.457 64.3306 123.804 63.622 123.377 62.7362C122.951 61.8505 122.75 60.9141 122.75 59.9018ZM124.306 59.9271C124.306 61.2937 124.683 62.3819 125.41 63.1665C126.138 63.951 127.067 64.3559 128.171 64.3559C129.3 64.3559 130.229 63.951 130.957 63.1665C131.685 62.3566 132.061 61.2431 132.061 59.7753C132.061 58.8389 131.911 58.0291 131.584 57.3458C131.283 56.6625 130.806 56.1058 130.229 55.7262C129.627 55.3466 128.949 55.1441 128.221 55.1441C127.167 55.1441 126.239 55.5237 125.486 56.2576C124.683 56.9915 124.306 58.2063 124.306 59.9271Z" fill="#8E8F8F"/>
<path d="M142.927 54.0557H144.433V60.6608C144.433 61.7996 144.308 62.7107 144.057 63.394C143.806 64.0773 143.329 64.6087 142.651 65.039C141.974 65.4692 141.095 65.6716 140.016 65.6716C138.962 65.6716 138.083 65.4945 137.406 65.1149C136.728 64.7353 136.251 64.2038 135.95 63.5205C135.674 62.8119 135.523 61.8756 135.523 60.6608V54.0557H137.029V60.6355C137.029 61.6225 137.13 62.3564 137.305 62.8372C137.481 63.3181 137.807 63.6724 138.259 63.9254C138.711 64.1785 139.238 64.3051 139.89 64.3051C140.995 64.3051 141.773 64.052 142.25 63.5458C142.726 63.0397 142.952 62.078 142.952 60.6355V54.0557H142.927Z" fill="#8E8F8F"/>
<path d="M146.918 65.4692V54.0557H151.185C151.938 54.0557 152.515 54.081 152.916 54.1569C153.468 54.2581 153.945 54.4353 154.322 54.6883C154.698 54.9414 154.999 55.321 155.225 55.8019C155.451 56.2827 155.577 56.7888 155.577 57.3709C155.577 58.3326 155.276 59.1677 154.648 59.8257C154.046 60.509 152.941 60.838 151.335 60.838H148.424V65.4692H146.918ZM148.424 59.4714H151.36C152.339 59.4714 153.017 59.2942 153.418 58.9146C153.82 58.5603 154.021 58.0289 154.021 57.3709C154.021 56.8901 153.895 56.4851 153.669 56.1562C153.418 55.8272 153.117 55.5994 152.716 55.4729C152.465 55.3969 151.988 55.3716 151.31 55.3716H148.424V59.4714Z" fill="#8E8F8F"/>
<path d="M35.4841 65.9503C35.4841 65.9503 37.2159 62.4832 37.4668 61.5468C37.4668 61.5468 39.5249 56.5107 38.4457 50.6648C38.4457 50.6648 37.8182 44.0596 30.4144 43.9331C30.4144 43.9331 27.9297 44.0343 25.0937 44.92C25.0937 44.92 20.1244 46.7168 15.9331 45.1225C15.9331 45.1225 18.493 46.0589 23.2616 44.2874C23.2616 44.2874 29.9125 41.5289 33.8779 42.1362C33.8779 42.1362 29.6113 37.6063 21.053 36.0119C21.053 36.0119 16.5605 34.7972 14.2766 36.6446L11.9676 38.4667C11.9676 38.4667 13.6492 35.8095 15.0797 35.1009C15.0797 35.1009 8.42886 33.7596 10.0853 27.5087C10.0853 27.5087 9.35747 33.38 15.7072 33.5065C15.7072 33.5065 25.1439 33.6584 27.478 34.7972C27.478 34.7972 27.2521 34.6706 26.9007 33.9114C26.9007 33.9114 26.1227 32.2412 26.0725 32.064L25.7211 31.077L25.2945 29.4574C25.2945 29.4574 24.5917 25.636 21.0279 25.4589C21.0279 25.4589 19.2961 25.4842 18.3926 25.3829C18.3926 25.3829 15.2303 25.307 14.6029 23.0294C14.6029 23.0294 15.3307 24.6996 17.6648 24.7503C17.6648 24.7503 18.744 24.8009 20.5008 24.5478C20.5008 24.5478 23.1612 24.0417 25.2192 26.3193L25.3447 22.5738L25.5455 17.639L25.7462 14.3237L26.0474 17.6643L26.3486 22.0677L26.6498 26.3446C26.6498 26.3446 26.8756 30.1913 28.4819 32.5448C28.4819 32.5448 29.3101 34.1392 30.9916 35.607C30.9916 35.607 31.7697 36.4928 32.5477 36.8218C32.5477 36.8218 35.8355 38.4161 38.9476 42.3387L35.7602 36.7205C35.7602 36.7205 33.3257 32.1652 32.6481 28.0908C32.6481 28.0908 32.0458 24.5984 30.8913 21.3844L30.4395 20.0431C30.4395 20.0431 29.8874 18.4741 28.9587 16.0952C28.9587 16.0952 28.005 13.8176 28.7831 12.2485C28.7831 12.2485 28.3313 13.8682 29.4356 15.9434C29.4356 15.9434 31.5438 20.0431 32.121 21.8146C32.121 21.8146 32.2967 16.2471 33.4763 13.691C33.4763 13.691 32.5477 18.5247 33.1751 23.409C33.1751 23.409 33.5516 27.3822 35.5845 32.1399C35.6347 32.2918 35.7602 32.4183 35.8104 32.5448C36.2622 33.4306 38.1445 36.9989 40.3782 40.2635L41.5829 42.3387C41.7334 42.5918 41.884 42.8449 42.0597 43.0726C42.2103 43.3004 42.4362 43.7053 42.4362 44.2114C42.4362 44.4645 42.4362 44.7429 42.4362 44.996C42.4864 45.8058 42.5366 47.5014 42.386 49.1463C42.4362 49.121 42.1099 58.9908 35.4841 65.9503Z" fill="white"/>
<path d="M25.1445 77.5663C25.1445 77.5663 28.608 76.2503 33.5021 69.2908C33.6526 69.0884 33.8032 68.8606 33.9287 68.6329C34.1295 68.3292 34.5311 67.7724 35.1083 67.2663C35.2589 67.1397 35.3844 67.0385 35.5099 66.8867C36.2126 66.1781 38.5216 63.698 39.5757 61.7746C39.5757 61.7746 41.6839 57.9785 42.0604 55.9034C42.0855 55.7009 42.1356 55.4985 42.1858 55.296C42.4368 54.2331 43.0894 51.2975 43.0894 48.868C43.0894 48.868 43.0392 43.5029 41.5584 37.581L40.0274 31.1277C40.0274 31.1277 38.2204 23.8645 38.1451 20.524C38.1451 20.1191 38.0949 19.7142 38.0447 19.3093C37.8188 17.7149 37.5177 13.109 39.7765 6.93408C39.7765 6.93408 38.9984 11.0591 39.149 13.767C39.149 13.767 39.4251 19.8913 40.6298 23.1053C40.6298 23.1053 41.458 21.3338 43.3905 19.537C43.3905 19.537 46.0258 16.8545 45.4234 14.5009C45.4234 14.5009 46.8289 16.4749 44.0682 19.9926L42.487 22.169C42.487 22.169 41.7592 23.2319 41.5333 24.0164C41.5333 24.0164 41.0815 25.3071 41.5835 26.5724C41.5835 26.5724 42.4619 29.4574 43.3905 32.0641C43.3905 32.0641 44.545 30.6975 45.3481 29.8876C45.8501 29.3815 46.3019 28.8501 46.7034 28.268C47.6069 26.952 49.0375 24.7503 49.3638 23.3584C49.3638 23.3584 50.719 19.613 50.5434 15.8928C50.5434 15.8928 51.3214 20.4734 50.443 23.3078C50.3928 23.4596 50.3426 23.6368 50.2924 23.7886C50.0414 24.8009 48.8869 29.0525 46.4022 31.5579L45.3732 32.6714C45.3732 32.6714 44.545 33.5066 44.6956 34.8731C44.6956 34.8731 44.8964 37.5304 45.323 38.9729C45.3481 39.0994 45.3983 39.226 45.4234 39.3272C45.6493 40.2636 46.5779 44.3633 46.5779 44.8188C46.5779 44.8188 46.8038 45.7299 46.4022 46.894C46.3521 47.0459 46.3019 47.1724 46.2768 47.3242C46.076 48.1088 45.4234 50.8166 45.3732 51.3228C45.3732 51.3228 44.8964 54.5115 44.8211 55.7515C44.8211 55.9034 44.796 56.0552 44.796 56.2071C44.7458 56.8903 44.6203 58.9149 44.8211 60.7623C44.8211 60.7623 45.0721 63.5461 45.3732 64.6849C45.3732 64.6849 46.076 67.3422 46.8289 68.6075C46.8289 68.6075 47.8328 70.6321 48.8367 71.6444C48.8367 71.6444 50.8445 74.4282 56.115 76.1997C56.115 76.1997 57.6209 76.7564 58.4993 76.8577L55.4625 78.1989C55.4625 78.1989 43.9678 83.1591 31.2182 79.6668L25.1445 77.5663Z" fill="white"/>
<path d="M55.1105 75.6174C55.1105 75.6174 52.3999 74.428 51.396 73.4157C51.396 73.4157 48.4847 70.809 47.5561 68.582C47.5561 68.582 45.8745 65.3174 45.6487 62.4071C45.6236 62.0275 45.5985 61.6479 45.5483 61.2936C45.3726 60.1041 45.0965 56.7636 45.8745 50.6646C45.8745 50.6646 47.2298 44.1353 47.5561 43.4773C47.5561 43.4773 48.6353 39.2764 50.1411 37.5049C50.1411 37.5049 51.8729 35.126 53.178 34.0631C53.3035 33.9619 53.4038 33.8859 53.5042 33.7594C54.1317 33.152 56.3654 30.9756 56.8422 29.8874C56.8422 29.8874 58.1222 27.8628 58.2728 25.3321C58.2728 25.3321 58.9002 20.5238 55.8383 16.7783C55.8383 16.7783 59.5026 19.7646 59.603 25.3321C59.603 25.3321 59.9543 29.8368 56.541 33.7847C56.541 33.7847 62.4892 30.6972 64.5974 28.951C64.6727 28.8751 64.748 28.8245 64.8484 28.7486C65.5009 28.2678 68.8138 25.5852 69.7173 21.0299C69.7173 21.0299 70.2695 25.0031 65.6013 29.8621C65.6013 29.8621 63.6939 31.912 60.9331 33.6835C60.9331 33.6835 62.4892 33.7847 64.1456 34.2655C64.3715 34.3415 64.5723 34.3921 64.7982 34.4174C65.3252 34.5186 66.4044 34.6705 67.4585 34.6705C67.4585 34.6705 69.1652 34.7211 69.8177 32.5447C69.8177 32.5447 70.42 34.1137 68.1864 35.1513C68.1864 35.1513 67.2326 35.8346 64.5974 35.4044C64.497 35.3791 64.4217 35.3791 64.3213 35.3538C63.7441 35.2525 61.3849 34.8223 59.879 35.2272C59.879 35.2272 56.9175 35.9358 54.4077 38.4665C54.4077 38.4665 52.676 40.3899 52.5505 40.6936C52.5505 40.6936 52.149 41.5034 51.396 42.2626C51.396 42.2626 49.3882 44.7933 48.3843 47.8302C48.3843 47.8302 46.4518 52.9422 47.0792 57.6493C47.1043 57.8265 47.1294 57.9783 47.1294 58.1555C47.2047 58.8641 47.4808 61.2936 48.1082 63.0144C48.1082 63.0144 48.7106 64.4569 48.8361 66.026C48.8612 66.4815 48.9114 66.937 49.0117 67.3673C49.2125 68.3542 49.6141 69.9233 50.116 70.6066C50.1411 70.6319 52.0235 74.3014 55.1105 75.6174Z" fill="white"/>
<path d="M48.8603 63.4957C48.8603 63.4957 47.6305 60.5095 47.5552 56.9918C47.5552 56.9918 47.3795 53.9549 47.8814 51.6773C47.8814 51.6773 48.8603 46.9449 50.4916 44.237C50.592 44.0852 50.6924 43.908 50.7677 43.7562C50.9685 43.4019 51.621 42.2884 52.2484 41.6557C52.3739 41.5291 52.4994 41.4279 52.6249 41.3267C52.6249 41.3267 55.8123 38.7454 60.4805 39.5299C60.4805 39.5299 62.2624 39.7829 63.7181 40.2891C63.7181 40.2891 66.0522 41.0989 67.7588 40.5675C67.7588 40.5675 70.645 40.036 71.0466 36.7461C71.0466 36.7461 71.4983 40.1372 67.9596 41.4785C67.9596 41.4785 66.9808 42.0353 64.1698 41.8328C63.9941 41.8328 63.8436 41.8075 63.6679 41.7822C63.0404 41.681 61.3589 41.4532 60.4805 41.3773C60.4805 41.3773 56.8413 40.9724 53.4782 43.7815C53.4782 43.7815 50.4665 46.4134 49.8893 49.8552C49.8642 49.9817 49.8391 50.1083 49.814 50.2348C49.7387 50.5132 49.6132 51.2977 49.6132 52.6896C49.6132 52.6896 49.6132 56.511 49.4124 57.9282C49.3622 58.3078 49.3371 58.6874 49.312 59.0923C49.2367 60.4336 49.0359 63.0655 48.8603 63.4957Z" fill="white"/>
<path d="M9.70898 20.0684C9.70898 20.0684 9.98506 20.1696 10.5623 21.359C10.8886 22.0676 11.1145 22.8015 11.516 23.4848C11.9678 24.244 12.2438 24.4465 12.5952 24.7249C13.5991 25.4841 14.4022 25.0792 14.9042 24.573C14.2266 24.32 11.8674 23.3077 11.4156 21.2578C11.4156 21.2578 13.3481 24.0163 15.4563 23.8391C15.4814 23.7885 15.5065 23.7632 15.5065 23.7632C17.1379 20.5239 9.70898 20.0684 9.70898 20.0684Z" fill="#E4368B"/>
<path d="M13.473 25.8135C13.473 25.8135 13.4228 26.0159 12.6197 26.4715C12.1428 26.7245 11.6409 26.927 11.1891 27.2307C10.6872 27.585 10.5617 27.7874 10.386 28.0405C9.90915 28.7744 10.2103 29.3312 10.5868 29.6602C10.7374 29.1793 11.3397 27.4837 12.7201 27.0788C12.7201 27.0788 10.9131 28.5466 11.1138 30.0145C11.1389 30.0398 11.164 30.0398 11.164 30.0398C13.473 31.0267 13.473 25.8135 13.473 25.8135Z" fill="#F08D03"/>
<path d="M9.15625 35.4807C9.15625 35.4807 9.33193 35.4807 9.85899 36.088C10.1853 36.4423 10.4362 36.8473 10.7876 37.1763C11.1641 37.5306 11.3648 37.6065 11.6158 37.6824C12.3186 37.9102 12.6699 37.4546 12.8707 36.9991C12.444 36.9991 10.9633 36.9738 10.3358 35.8097C10.3358 35.8097 11.917 37.0497 13.0464 36.3917C13.0464 36.3664 13.0464 36.3411 13.0464 36.3411C13.3225 33.8863 9.15625 35.4807 9.15625 35.4807Z" fill="#8D8E8E"/>
<path d="M21.4297 14.7285C21.4297 14.7285 21.6305 14.8551 21.8062 15.918C21.9065 16.5253 21.9316 17.158 22.0822 17.7654C22.2579 18.4487 22.4336 18.6764 22.6344 18.9548C23.2618 19.7646 23.9646 19.6128 24.4414 19.3597C23.9646 19.0054 22.3834 17.7148 22.4587 16.0698C22.4587 16.0698 23.3622 18.6005 25.0186 18.9295C25.0437 18.9042 25.0688 18.8789 25.0688 18.8789C27.0516 16.6772 21.4297 14.7285 21.4297 14.7285Z" fill="#8D8E8E"/>
<path d="M30.2375 10.7808C30.2375 10.7808 30.2124 10.882 29.7105 11.0844C29.4093 11.1857 29.1081 11.2616 28.832 11.4134C28.5309 11.5653 28.4305 11.6665 28.3301 11.793C28.0289 12.1727 28.2297 12.5016 28.4556 12.7294C28.556 12.4763 28.9324 11.5653 29.7858 11.4387C29.7858 11.4387 28.6564 12.122 28.7818 12.9825C28.8069 12.9825 28.8069 13.0078 28.8069 13.0078C30.2124 13.767 30.2375 10.7808 30.2375 10.7808Z" fill="#8D8E8E"/>
<path d="M34.4555 6.2002C34.4555 6.2002 34.5308 6.47857 33.7779 7.59209C33.3512 8.25007 32.8242 8.83214 32.4728 9.51543C32.0712 10.2999 32.021 10.6542 31.9708 11.0845C31.8454 12.3498 32.5983 12.8307 33.2759 13.0078C33.1504 12.2992 32.7991 9.74319 34.2798 8.30069C34.2798 8.30069 32.9246 11.3882 34.1794 13.1343C34.2296 13.1343 34.2547 13.1343 34.2547 13.1343C37.8939 12.8307 34.4555 6.2002 34.4555 6.2002Z" fill="#224190"/>
<path d="M36.2874 13.2861C36.2874 13.2861 36.2623 13.4886 35.5345 14.0453C35.1079 14.3743 34.631 14.6274 34.2294 15.007C33.7777 15.4119 33.6773 15.6397 33.5518 15.9181C33.1753 16.7026 33.5518 17.2087 33.9534 17.4871C34.0287 16.981 34.4051 15.2348 35.7102 14.6527C35.7102 14.6527 34.1039 16.3483 34.5306 17.7908C34.5557 17.7908 34.5808 17.8161 34.5808 17.8161C36.9902 18.4488 36.2874 13.2861 36.2874 13.2861Z" fill="#8D8E8E"/>
<path d="M75.0627 34.9746C75.0627 34.9746 74.9372 35.1264 74.0086 35.1264C73.4564 35.1264 72.9294 35.0505 72.4023 35.1264C71.8 35.2024 71.5741 35.3036 71.3231 35.4554C70.5451 35.8857 70.5702 36.5183 70.7459 36.9739C71.0972 36.6196 72.4274 35.4301 73.8329 35.7085C73.8329 35.7085 71.549 36.1387 71.047 37.5306C71.0721 37.5559 71.0721 37.5812 71.0721 37.5812C72.6282 39.5552 75.0627 34.9746 75.0627 34.9746Z" fill="#224190"/>
<path d="M54.8329 11.3882C54.8329 11.3882 54.9584 11.5906 54.6824 12.6029C54.5318 13.2103 54.2808 13.7671 54.1804 14.3744C54.0549 15.0577 54.1302 15.3361 54.2055 15.6651C54.4314 16.6268 55.109 16.8039 55.6612 16.7786C55.3851 16.2725 54.5067 14.4503 55.2596 13.0078C55.2596 13.0078 55.0086 15.6398 56.3639 16.6268C56.4141 16.6015 56.4141 16.6015 56.4141 16.6015C59.0242 15.4879 54.8329 11.3882 54.8329 11.3882Z" fill="#8D8E8E"/>
<path d="M68.3857 16.146C68.3857 16.146 68.5112 16.3485 68.2351 17.3607C68.0845 17.9681 67.8335 18.5249 67.7331 19.1322C67.6076 19.8155 67.6829 20.0939 67.7582 20.4229C67.9841 21.3846 68.6617 21.5617 69.2139 21.5364C68.9378 21.0303 68.0594 19.2082 68.8123 17.7657C68.8123 17.7657 68.5614 20.3976 69.9166 21.3846C69.9668 21.3593 69.9668 21.3593 69.9668 21.3593C72.577 20.2458 68.3857 16.146 68.3857 16.146Z" fill="#8B3E8F"/>
<path d="M52.5508 18.8539C52.5508 18.8539 52.7014 18.778 53.4292 19.1323C53.8559 19.3347 54.2574 19.6131 54.7092 19.7649C55.2111 19.9421 55.4119 19.9168 55.6629 19.8915C56.3907 19.8156 56.5413 19.2588 56.5413 18.778C56.1648 18.9551 54.7845 19.4866 53.7555 18.6767C53.7555 18.6767 55.688 19.2082 56.466 18.1706C56.466 18.1453 56.4409 18.12 56.4409 18.12C55.7633 15.7664 52.5508 18.8539 52.5508 18.8539Z" fill="#8D8E8E"/>
<path d="M17.4629 50.6649C17.4629 50.6649 17.5131 50.4624 18.3915 50.0322C18.8935 49.7791 19.4205 49.602 19.8974 49.3236C20.4244 48.9946 20.575 48.7921 20.7758 48.5391C21.3028 47.8052 21.0017 47.2231 20.6503 46.8688C20.4746 47.3496 19.7719 49.0705 18.3162 49.4248C18.3162 49.4248 20.2738 48.0076 20.1232 46.4639C20.0981 46.4386 20.073 46.4386 20.073 46.4386C17.7139 45.2744 17.4629 50.6649 17.4629 50.6649Z" fill="#8D8E8E"/>
<path d="M31.8195 49.7792C31.8195 49.7792 31.7694 49.5514 32.3466 48.6656C32.698 48.1342 33.0995 47.6787 33.4007 47.1219C33.727 46.4892 33.7521 46.2109 33.8023 45.8819C33.9027 44.8696 33.3003 44.49 32.7482 44.3381C32.8486 44.9202 33.1246 46.9448 31.945 48.1089C31.945 48.1089 33.0242 45.6541 32.0203 44.2622C31.9701 44.2622 31.945 44.2622 31.945 44.2622C29.0588 44.49 31.8195 49.7792 31.8195 49.7792Z" fill="#568F32"/>
<path d="M15.6816 39.7576C15.6816 39.7576 15.7569 39.5805 16.535 39.2768C16.9867 39.0996 17.4636 38.9731 17.9153 38.7453C18.4173 38.4922 18.5679 38.3151 18.7436 38.1126C19.2706 37.5053 19.0447 36.9738 18.7436 36.6195C18.5428 37.0497 17.8149 38.5176 16.5099 38.72C16.5099 38.72 18.342 37.6065 18.3169 36.2399C18.2918 36.2146 18.2667 36.2146 18.2667 36.2146C16.284 34.9999 15.6816 39.7576 15.6816 39.7576Z" fill="#8D8E8E"/>
<path d="M23.5613 30.394C23.5613 30.394 23.6115 30.5459 23.1598 31.1279C22.9088 31.4569 22.6076 31.7606 22.3817 32.1149C22.1308 32.5198 22.1057 32.697 22.0806 32.9248C22.0053 33.5827 22.457 33.8105 22.8586 33.9117C22.7833 33.5574 22.5574 32.2415 23.4358 31.4823C23.4358 31.4823 22.6327 33.0766 23.3856 33.937C23.4107 33.937 23.4358 33.937 23.4358 33.937C25.6444 33.7599 23.5613 30.394 23.5613 30.394Z" fill="#8D8E8E"/>
<path d="M21.9561 29.5083C21.9561 29.5083 21.8808 29.3565 22.0816 28.6479C22.207 28.2177 22.3827 27.8381 22.458 27.3825C22.5584 26.9017 22.5082 26.6992 22.458 26.4715C22.3074 25.7629 21.8306 25.6363 21.429 25.6616C21.6298 26.0159 22.2321 27.3319 21.68 28.3695C21.68 28.3695 21.8808 26.4715 20.9271 25.7629C20.902 25.7629 20.8769 25.7882 20.8769 25.7882C18.9694 26.5221 21.9561 29.5083 21.9561 29.5083Z" fill="#8D8E8E"/>
<path d="M30.0881 22.6501C30.0881 22.6501 29.9877 22.7513 29.2598 22.726C28.8332 22.7007 28.4316 22.6248 28.03 22.6501C27.5532 22.6754 27.4026 22.7513 27.1767 22.8526C26.5744 23.1563 26.5744 23.6371 26.6748 23.9914C26.9508 23.7383 28.03 22.8779 29.0841 23.1563C29.0841 23.1563 27.3022 23.384 26.8756 24.4469C26.9006 24.4722 26.9006 24.4722 26.9006 24.4722C28.03 26.0919 30.0881 22.6501 30.0881 22.6501Z" fill="#8D8E8E"/>
<path d="M29.2598 25.9652C29.2598 25.9652 29.3853 25.9652 29.7366 26.4207C29.9374 26.6738 30.1131 26.9522 30.3641 27.1799C30.615 27.433 30.7656 27.5089 30.9413 27.5595C31.4433 27.762 31.7193 27.5089 31.8699 27.2559C31.5687 27.2305 30.4896 27.0534 30.088 26.2689C30.088 26.2689 31.1672 27.2052 32.0205 26.9016C32.0205 26.8762 32.0205 26.8762 32.0205 26.8762C32.3468 25.3578 29.2598 25.9652 29.2598 25.9652Z" fill="#8D8E8E"/>
<path d="M30.4141 33.3295C30.4141 33.3295 30.5647 33.3295 31.0164 33.8862C31.2674 34.1899 31.4933 34.5442 31.7693 34.8479C32.0956 35.1769 32.2713 35.2528 32.4721 35.3287C33.0744 35.5818 33.4258 35.2781 33.6266 34.9491C33.2501 34.8985 31.945 34.696 31.4431 33.7344C31.4431 33.7344 32.7732 34.8732 33.8273 34.4936C33.8273 34.4683 33.8273 34.443 33.8273 34.443C34.2289 32.5702 30.4141 33.3295 30.4141 33.3295Z" fill="#EB6639"/>
<path d="M63.6675 24.5732C63.6675 24.5732 63.6173 24.801 62.6887 25.3325C62.1365 25.6361 61.5844 25.8639 61.0573 26.2435C60.4801 26.6484 60.3295 26.8762 60.1538 27.1799C59.6268 28.0403 59.9781 28.673 60.4048 29.0273C60.5554 28.4705 61.233 26.5219 62.8142 26.0157C62.8142 26.0157 60.7562 27.7366 61.0071 29.4322C61.0322 29.4575 61.0573 29.4575 61.0573 29.4575C63.7428 30.571 63.6675 24.5732 63.6675 24.5732Z" fill="#074B3B"/>
<path d="M65.4243 21.0303C65.4243 21.0303 65.5498 21.1821 65.4745 22.1185C65.4243 22.6752 65.2988 23.2067 65.2988 23.7634C65.2988 24.3708 65.3992 24.6239 65.4996 24.9023C65.8259 25.7374 66.4784 25.788 66.9553 25.6615C66.629 25.2566 65.6 23.7887 66.0267 22.3969C66.0267 22.3969 66.2023 24.7504 67.5325 25.4337C67.5576 25.4084 67.5827 25.4084 67.5827 25.4084C69.7411 24.0165 65.4243 21.0303 65.4243 21.0303Z" fill="#8D8E8E"/>
<path d="M45.045 25.3325C45.045 25.3325 44.8944 25.4084 44.6937 26.193C44.5682 26.6485 44.5431 27.1293 44.3925 27.5595C44.2168 28.0657 44.0913 28.2175 43.9156 28.42C43.4137 29.0021 42.8866 28.8502 42.5353 28.6224C42.9117 28.3947 44.1666 27.5089 44.1917 26.2436C44.1917 26.2436 43.3886 28.1163 42.1086 28.2681C42.0835 28.2428 42.0835 28.2428 42.0835 28.2428C40.7031 26.4966 45.045 25.3325 45.045 25.3325Z" fill="#8D8E8E"/>
<path d="M44.7187 9.86963C44.7187 9.86963 44.6936 10.0468 45.1704 10.7048C45.4465 11.0844 45.7728 11.4134 46.0238 11.8183C46.2998 12.2738 46.3249 12.4763 46.3751 12.7546C46.5006 13.5139 46.0489 13.8175 45.6473 13.9694C45.6975 13.5392 45.823 11.9954 44.8944 11.1603C44.8944 11.1603 45.7979 12.9824 45.1202 14.0706C45.0952 14.0706 45.0701 14.0706 45.0701 14.0706C42.8615 13.9694 44.7187 9.86963 44.7187 9.86963Z" fill="#8D8E8E"/>
<path d="M37.5418 25.459C37.5418 25.459 37.5167 25.6614 36.7638 26.2182C36.3371 26.5472 35.8603 26.8003 35.4336 27.1799C34.9818 27.5848 34.8564 27.8125 34.7309 28.0909C34.3544 28.9008 34.7309 29.4069 35.1575 29.6853C35.2328 29.1791 35.6093 27.4076 36.9395 26.8256C36.9395 26.8256 35.3332 28.5465 35.7348 29.989C35.7599 29.989 35.785 30.0143 35.785 30.0143C38.2696 30.6723 37.5418 25.459 37.5418 25.459Z" fill="#8D8E8E"/>
<path d="M36.6875 6.14941C36.6875 6.14941 36.6875 6.32657 37.315 6.83271C37.6663 7.13639 38.0679 7.36416 38.4193 7.71846C38.7957 8.09806 38.871 8.30052 38.9714 8.52828C39.2726 9.23688 38.8961 9.6418 38.5448 9.86956C38.4946 9.43934 38.2436 7.89561 37.1393 7.31354C37.1393 7.31354 38.4444 8.85728 38.0428 10.072C38.0177 10.072 37.9926 10.072 37.9926 10.072C35.8593 10.6035 36.6875 6.14941 36.6875 6.14941Z" fill="#8D8E8E"/>
<path d="M75.2373 40.5676C75.2373 40.5676 75.0365 40.5929 74.2836 40.0614C73.8318 39.7324 73.4554 39.3781 72.9785 39.0997C72.4515 38.7961 72.2005 38.7454 71.9244 38.7201C71.046 38.5936 70.6946 39.125 70.5691 39.5806C71.0711 39.5047 72.8279 39.3275 73.7816 40.4157C73.7816 40.4157 71.6985 39.3781 70.4688 40.2133C70.4688 40.2386 70.4688 40.2639 70.4688 40.2639C70.5691 42.7946 75.2373 40.5676 75.2373 40.5676Z" fill="#8D8E8E"/>
<path d="M48.057 31.5581C48.057 31.5581 47.9064 31.7099 47.8562 32.6969C47.8311 33.279 47.9064 33.8357 47.8311 34.4178C47.7558 35.0505 47.6303 35.2783 47.4797 35.5566C47.028 36.3665 46.3503 36.3412 45.8735 36.1387C46.2499 35.7591 47.5299 34.3672 47.2539 32.8741C47.2539 32.8741 46.7519 35.3036 45.2711 35.8097C45.246 35.7844 45.2209 35.7844 45.2209 35.7844C43.188 34.0635 48.057 31.5581 48.057 31.5581Z" fill="#8D8E8E"/>
<path d="M61.9875 35.6069C61.9875 35.6069 62.0126 35.7588 61.586 36.3915C61.335 36.7458 61.0338 37.0747 60.8079 37.4797C60.557 37.9099 60.5319 38.1123 60.5068 38.3654C60.4315 39.074 60.8581 39.3777 61.2346 39.4789C61.1593 39.074 61.0087 37.6062 61.862 36.8217C61.862 36.8217 61.0589 38.5679 61.7366 39.5548C61.7617 39.5548 61.7867 39.5548 61.7867 39.5548C63.8699 39.4283 61.9875 35.6069 61.9875 35.6069Z" fill="#8D8E8E"/>
<path d="M19.1444 19.0815C19.1444 19.0815 19.1444 19.3093 18.3915 20.0685C17.9397 20.524 17.4629 20.8783 17.0613 21.3592C16.6095 21.8906 16.5343 22.169 16.4339 22.498C16.1327 23.4597 16.6597 23.9658 17.1617 24.2189C17.1617 23.6368 17.3123 21.5869 18.6927 20.6759C18.6927 20.6759 17.1366 22.8776 17.8393 24.4467C17.8895 24.4467 17.9146 24.4467 17.9146 24.4467C20.7758 24.8516 19.1444 19.0815 19.1444 19.0815Z" fill="white"/>
<path d="M6.4707 25.2061C6.4707 25.2061 6.64639 25.3579 6.69658 26.3702C6.72168 26.9776 6.67148 27.5596 6.77187 28.167C6.87226 28.825 6.99775 29.078 7.17344 29.3564C7.67539 30.1916 8.35303 30.1409 8.85498 29.9385C8.45342 29.5589 7.07305 28.1417 7.34912 26.5726C7.34912 26.5726 7.92637 29.1034 9.48242 29.5842C9.50752 29.5589 9.53262 29.5336 9.53262 29.5336C11.5906 27.6862 6.4707 25.2061 6.4707 25.2061Z" fill="white"/>
<path d="M29.209 15.0072C29.209 15.0072 29.3596 14.9313 30.0874 15.2856C30.5141 15.488 30.9156 15.7664 31.3674 15.9183C31.8693 16.0954 32.0701 16.0701 32.3211 16.0448C33.0489 15.9689 33.1995 15.4121 33.1995 14.9313C32.823 15.1084 31.4427 15.6399 30.4137 14.8301C30.4137 14.8301 32.3462 15.3615 33.1242 14.3239C33.1242 14.2986 33.0991 14.2733 33.0991 14.2733C32.3964 11.9197 29.209 15.0072 29.209 15.0072Z" fill="white"/>
<path d="M69.7927 28.2935C69.7927 28.2935 69.8178 28.4959 69.2657 29.2298C68.9394 29.66 68.563 30.0396 68.2618 30.5205C67.9355 31.0519 67.9104 31.2797 67.8602 31.5834C67.7096 32.4438 68.2367 32.8234 68.6884 32.9753C68.6382 32.4691 68.5128 30.6976 69.592 29.7613C69.592 29.7613 68.5128 31.8365 69.3159 33.1018C69.341 33.1018 69.3661 33.1018 69.3661 33.1018C71.9009 33.0259 69.7927 28.2935 69.7927 28.2935Z" fill="white"/>
<path d="M11.791 45.5526C11.791 45.5526 11.9416 45.4767 12.6694 45.831C13.0961 46.0335 13.4977 46.3118 13.9494 46.4637C14.4514 46.6408 14.6522 46.6155 14.9031 46.5902C15.631 46.5143 15.7815 45.9575 15.7815 45.4767C15.4051 45.6538 14.0247 46.1853 12.9957 45.3755C12.9957 45.3755 14.9282 45.9069 15.7063 44.8693C15.7063 44.844 15.6812 44.8187 15.6812 44.8187C15.0035 42.4651 11.791 45.5526 11.791 45.5526Z" fill="white"/>
<path d="M23.4113 38.2642C23.4113 38.2642 23.4866 38.4919 23.0097 39.4536C22.7337 40.0104 22.3823 40.5165 22.1564 41.1239C21.9054 41.7818 21.9054 42.0602 21.9305 42.4145C21.9556 43.4268 22.6082 43.7305 23.1603 43.8064C22.9846 43.2497 22.4576 41.2504 23.4866 39.9597C23.4866 39.9597 22.7337 42.5411 23.8881 43.8064C23.9383 43.8064 23.9634 43.8064 23.9634 43.8064C26.8246 43.1737 23.4113 38.2642 23.4113 38.2642Z" fill="white"/>
<path d="M32.0451 29.3813C32.0451 29.3813 31.9196 29.5332 30.991 29.5332C30.4388 29.5332 29.9118 29.4573 29.3847 29.5332C28.7824 29.6091 28.5565 29.7103 28.3055 29.8622C27.5275 30.2924 27.5526 30.9251 27.7283 31.3806C28.0797 31.0263 29.4098 29.8369 30.8153 30.1153C30.8153 30.1153 28.5314 30.5455 28.0295 31.9374C28.0546 31.9627 28.0546 31.988 28.0546 31.988C29.6106 33.9619 32.0451 29.3813 32.0451 29.3813Z" fill="white"/>
<path d="M63.9952 19.2842C63.9952 19.2842 63.8948 19.4866 62.8658 19.8156C62.2634 19.9928 61.6611 20.094 61.0839 20.3471C60.4313 20.6255 60.2305 20.8279 60.0046 21.0557C59.3019 21.7896 59.5278 22.4729 59.8541 22.9284C60.1301 22.4223 61.2093 20.6508 62.8407 20.5242C62.8407 20.5242 60.4564 21.739 60.356 23.4599C60.3811 23.4852 60.4062 23.5105 60.4062 23.5105C62.8156 25.1554 63.9952 19.2842 63.9952 19.2842Z" fill="white"/>
<path d="M53.354 24.8516C53.354 24.8516 53.4042 25.0793 54.3328 25.6108C54.885 25.9145 55.4371 26.1422 55.9642 26.5218C56.5414 26.9267 56.692 27.1545 56.8677 27.4582C57.3947 28.3186 57.0433 28.9513 56.6167 29.3056C56.4661 28.7489 55.7885 26.8002 54.2073 26.2941C54.2073 26.2941 56.2653 28.015 56.0143 29.7105C55.9892 29.7358 55.9642 29.7358 55.9642 29.7358C53.2536 30.8493 53.354 24.8516 53.354 24.8516Z" fill="#8D8E8E"/>
<path d="M50.2161 16.6772C50.2161 16.6772 50.0655 16.8544 49.0114 16.9556C48.384 17.0062 47.7816 16.9556 47.1542 17.0822C46.4765 17.2087 46.2256 17.3605 45.9244 17.5377C45.0711 18.0944 45.1464 18.803 45.3722 19.3345C45.7487 18.9043 47.1793 17.4112 48.8106 17.6389C48.8106 17.6389 46.2256 18.2969 45.7487 19.9672C45.7738 19.9925 45.7989 20.0178 45.7989 20.0178C47.7816 22.1436 50.2161 16.6772 50.2161 16.6772Z" fill="white"/>
<path d="M65.927 36.3159C65.927 36.3159 65.9521 36.4678 65.5254 37.1004C65.2744 37.4547 64.9733 37.7837 64.7474 38.1886C64.4964 38.6189 64.4713 38.8213 64.4462 39.0744C64.3709 39.783 64.7976 40.0867 65.174 40.1879C65.0988 39.783 64.9482 38.3152 65.8015 37.5307C65.8015 37.5307 64.9984 39.2769 65.676 40.2638C65.7011 40.2638 65.7262 40.2638 65.7262 40.2638C67.7842 40.1373 65.927 36.3159 65.927 36.3159Z" fill="white"/>
<path d="M71.1477 45.9073C71.1477 45.9073 70.9971 45.7808 70.8967 44.8697C70.8465 44.3383 70.8465 43.7815 70.7462 43.2501C70.6207 42.6427 70.4952 42.4403 70.3195 42.1872C69.8175 41.4533 69.2152 41.5292 68.7634 41.757C69.1399 42.0859 70.445 43.3007 70.2944 44.7179C70.2944 44.7179 69.667 42.4656 68.2364 42.0859C68.2113 42.1113 68.1862 42.1366 68.1862 42.1366C66.3792 43.9081 71.1477 45.9073 71.1477 45.9073Z" fill="white"/>
<path d="M6.62109 32.6464C6.62109 32.6464 6.77168 32.5704 7.49951 32.9247C7.92617 33.1272 8.32773 33.4056 8.77949 33.5574C9.28145 33.7346 9.48223 33.7093 9.7332 33.684C10.461 33.608 10.6116 33.0513 10.6116 32.5704C10.2352 32.7476 8.85479 33.279 7.82578 32.4692C7.82578 32.4692 9.7583 33.0007 10.5363 31.9631C10.5363 31.9378 10.5112 31.9125 10.5112 31.9125C9.83359 29.5589 6.62109 32.6464 6.62109 32.6464Z" fill="#8D8E8E"/>
<path d="M27.3527 7.46582C27.3527 7.46582 27.3276 7.7442 26.2986 8.60464C25.6963 9.11078 25.0437 9.5157 24.4916 10.0725C23.8642 10.7051 23.7387 11.0088 23.563 11.4137C23.0861 12.5779 23.6634 13.2865 24.2657 13.6408C24.341 12.9069 24.7677 10.3761 26.5998 9.41447C26.5998 9.41447 24.4163 11.9705 25.0939 13.9951C25.1441 14.0204 25.1692 14.0204 25.1692 14.0204C28.7331 14.8302 27.3527 7.46582 27.3527 7.46582Z" fill="#8B3E8F"/>
<path d="M29.2086 17.1328C29.2086 17.1328 29.1333 17.2593 28.4808 17.4618C28.1043 17.5883 27.7028 17.639 27.3263 17.7908C26.8997 17.9679 26.7742 18.0945 26.6236 18.2463C26.1467 18.7019 26.2973 19.1574 26.4981 19.4611C26.6738 19.1321 27.4016 18.0186 28.4557 17.9426C28.4557 17.9426 26.8997 18.7019 26.8244 19.8154C26.8495 19.8407 26.8495 19.8407 26.8495 19.8407C28.3553 20.9289 29.2086 17.1328 29.2086 17.1328Z" fill="#8D8E8E"/>
<path d="M63.5685 15.083C63.5685 15.083 63.3928 15.2855 62.1128 15.3108C61.3599 15.3108 60.632 15.2095 59.8791 15.3108C59.0509 15.412 58.7497 15.5638 58.3983 15.7663C57.3442 16.3484 57.3693 17.2088 57.5952 17.8668C58.0972 17.386 59.9042 15.741 61.8367 16.1459C61.8367 16.1459 58.6995 16.728 57.9968 18.6513C58.0219 18.7019 58.047 18.7019 58.047 18.7019C60.2054 21.4098 63.5685 15.083 63.5685 15.083Z" fill="#EB6639"/>
<path d="M18.5681 40.2129C18.5681 40.2129 18.5932 40.4153 18.0411 41.1493C17.7148 41.5795 17.3384 41.9591 17.0372 42.4399C16.7109 42.9714 16.6858 43.1991 16.6356 43.5028C16.485 44.3633 17.0121 44.7429 17.4638 44.8947C17.4136 44.3886 17.2882 42.6171 18.3674 41.6807C18.3674 41.6807 17.2882 43.7559 18.0913 45.0212C18.1164 45.0212 18.1415 45.0212 18.1415 45.0212C20.6763 44.9706 18.5681 40.2129 18.5681 40.2129Z" fill="#D12C30"/>
<path d="M27.7031 49.8299C27.7031 49.8299 27.5776 49.6781 27.6027 48.7417C27.6278 48.1849 27.7031 47.6788 27.678 47.1221C27.6278 46.5147 27.5274 46.2616 27.4019 45.9832C27.0254 45.1481 26.4231 45.0975 25.9713 45.1987C26.2976 45.6036 27.3768 47.0967 27.0505 48.4886C27.0505 48.4886 26.7494 46.1351 25.4192 45.4265C25.3941 45.4518 25.369 45.4518 25.369 45.4518C23.4114 46.7677 27.7031 49.8299 27.7031 49.8299Z" fill="#8D8E8E"/>
<path d="M14.6775 39.732C14.6775 39.732 14.6022 39.6561 14.6022 39.15C14.6022 38.8463 14.6524 38.5426 14.6273 38.2389C14.6022 37.9099 14.5269 37.7834 14.4516 37.6568C14.2257 37.2519 13.8493 37.3025 13.5732 37.4291C13.774 37.6062 14.4516 38.2642 14.2759 39.074C14.2759 39.074 14.05 37.8087 13.2469 37.6315C13.2218 37.6568 13.2218 37.6568 13.2218 37.6568C12.0422 38.6944 14.6775 39.732 14.6775 39.732Z" fill="#8D8E8E"/>
<path d="M27.2769 41.7819C27.2769 41.7819 27.302 41.6554 27.8793 41.3011C28.2056 41.0986 28.582 40.9468 28.9083 40.719C29.2597 40.466 29.3349 40.3141 29.4353 40.137C29.7114 39.6055 29.4102 39.2259 29.084 39.0234C29.0338 39.3777 28.7577 40.5672 27.7287 40.8962C27.7287 40.8962 28.9585 39.808 28.6322 38.7957C28.6071 38.7957 28.582 38.7704 28.582 38.7704C26.6495 38.163 27.2769 41.7819 27.2769 41.7819Z" fill="#8D8E8E"/>
<path d="M17.8896 27.1294C17.8896 27.1294 17.9649 27.3825 17.1617 28.4454C16.71 29.0527 16.1327 29.6095 15.7312 30.2675C15.2794 31.0014 15.2543 31.3304 15.2041 31.7353C15.0786 32.9247 15.9068 33.3549 16.6347 33.5068C16.4841 32.8488 16.1076 30.4699 17.7139 29.1033C17.7139 29.1033 16.2582 31.9884 17.6135 33.608C17.6637 33.608 17.7139 33.608 17.7139 33.608C21.6542 33.2537 17.8896 27.1294 17.8896 27.1294Z" fill="#00ABA8"/>
<path d="M24.2403 21.6631C24.2403 21.6631 24.2403 21.8149 23.6881 22.2452C23.387 22.4982 23.0356 22.7007 22.7344 23.0044C22.4081 23.3334 22.3328 23.4852 22.2576 23.6877C22.0066 24.295 22.3078 24.6493 22.6089 24.8518C22.6591 24.4722 22.8599 23.1562 23.8136 22.6754C23.8136 22.6754 22.6842 23.9913 23.0356 25.0542C23.0607 25.0542 23.0858 25.0542 23.0858 25.0542C24.943 25.4845 24.2403 21.6631 24.2403 21.6631Z" fill="#8D8E8E"/>
<path d="M36.3369 20.1953C36.3369 20.1953 36.2867 20.3725 35.5589 20.7521C35.1322 20.9798 34.6805 21.1317 34.2538 21.4101C33.802 21.7137 33.6766 21.8909 33.526 22.1187C33.0742 22.7766 33.3503 23.2575 33.6766 23.5612C33.8271 23.1309 34.4044 21.6378 35.6342 21.2835C35.6342 21.2835 33.9777 22.5489 34.1283 23.8902C34.1534 23.9155 34.1785 23.9155 34.1785 23.9155C36.2114 24.8518 36.3369 20.1953 36.3369 20.1953Z" fill="#568F32"/>
<path d="M72.7032 22.0425C72.7032 22.0425 72.5526 22.1184 72.3519 22.9029C72.2264 23.3584 72.2013 23.8393 72.0507 24.2695C71.875 24.7757 71.7495 24.9275 71.5738 25.1299C71.0719 25.712 70.5448 25.5602 70.1935 25.3324C70.5699 25.1046 71.8248 24.2189 71.8499 22.9535C71.8499 22.9535 71.0468 24.8263 69.7668 24.9781C69.7417 24.9528 69.7417 24.9528 69.7417 24.9528C68.3613 23.2066 72.7032 22.0425 72.7032 22.0425Z" fill="#8D8E8E"/>
<path d="M53.1777 21.1062C53.1777 21.1062 53.4036 21.1568 53.9558 22.0679C54.282 22.5993 54.5079 23.1814 54.8844 23.6875C55.311 24.2443 55.5369 24.3961 55.8381 24.5733C56.6914 25.1047 57.3188 24.6998 57.6702 24.2696C57.1181 24.1178 55.1604 23.4851 54.6334 21.916C54.6334 21.916 56.3651 23.9659 58.0467 23.6622C58.0718 23.6116 58.0718 23.6116 58.0718 23.6116C59.1259 20.8784 53.1777 21.1062 53.1777 21.1062Z" fill="#D12C30"/>
<path d="M40.6543 14.5264C40.6543 14.5264 40.7798 14.6782 41.7084 14.6782C42.2605 14.6782 42.7876 14.6023 43.3147 14.6782C43.917 14.7541 44.1429 14.8554 44.3938 15.0072C45.1719 15.4374 45.1468 16.0701 44.9711 16.5256C44.6197 16.1713 43.2896 14.9819 41.8841 15.2603C41.8841 15.2603 44.168 15.6905 44.6699 17.0824C44.6448 17.1077 44.6448 17.133 44.6448 17.133C43.0888 19.107 40.6543 14.5264 40.6543 14.5264Z" fill="#8D8E8E"/>
<path d="M45.4219 21.688C45.4219 21.688 45.5725 21.8145 45.5976 22.7003C45.6227 23.2064 45.5725 23.7126 45.6227 24.244C45.6979 24.8261 45.8234 25.0285 45.9489 25.2563C46.3756 25.9649 46.9528 25.9396 47.3795 25.7624C47.0281 25.4334 45.8736 24.2187 46.1246 22.8521C46.1246 22.8521 46.5764 25.0032 47.9065 25.4588C47.9316 25.4334 47.9567 25.4334 47.9567 25.4334C49.7889 23.8897 45.4219 21.688 45.4219 21.688Z" fill="#E4368B"/>
<path d="M52.7505 11.3374C52.7505 11.3374 52.7505 11.5399 51.9976 12.1978C51.5709 12.5775 51.094 12.8811 50.6925 13.2861C50.2407 13.7416 50.1403 13.9947 50.0399 14.273C49.6886 15.1335 50.1403 15.6396 50.567 15.8927C50.6172 15.3612 50.8933 13.4885 52.2234 12.7799C52.2234 12.7799 50.6423 14.6779 51.1693 16.1458C51.1944 16.1458 51.2195 16.1711 51.2195 16.1711C53.8548 16.7278 52.7505 11.3374 52.7505 11.3374Z" fill="#8D8E8E"/>
<path d="M38.9722 3.94775C38.9722 3.94775 39.0475 4.07429 38.8718 4.75758C38.7714 5.1625 38.5958 5.5168 38.5456 5.92171C38.4703 6.37724 38.4954 6.55439 38.5456 6.78215C38.6962 7.44014 39.1479 7.54137 39.5244 7.51606C39.3487 7.18707 38.7463 5.97232 39.2483 5.01065C39.2483 5.01065 39.0726 6.75684 39.9761 7.41483C40.0012 7.41483 40.0263 7.38952 40.0263 7.38952C41.7581 6.65562 38.9722 3.94775 38.9722 3.94775Z" fill="#8D8E8E"/>
<path d="M43.7164 8.07275C43.7164 8.07275 43.616 8.30052 42.5368 8.62951C41.9094 8.83197 41.2819 8.93319 40.6545 9.18627C39.9769 9.46464 39.751 9.69241 39.5 9.94548C38.7471 10.7047 38.9981 11.4386 39.3494 11.9194C39.6506 11.388 40.7549 9.51526 42.4866 9.36342C42.4866 9.36342 39.9769 10.6541 39.8765 12.4509C39.9016 12.4762 39.9267 12.5015 39.9267 12.5015C42.4615 14.2477 43.7164 8.07275 43.7164 8.07275Z" fill="#074B3B"/>
<path d="M68.1862 35.6831C68.1862 35.6831 68.2866 35.8096 68.1862 36.5689C68.136 36.9991 68.0105 37.4293 67.9854 37.8848C67.9603 38.391 68.0356 38.5681 68.1109 38.7959C68.3619 39.4792 68.8638 39.5298 69.2654 39.4539C69.0144 39.1249 68.2113 37.9101 68.6128 36.7966C68.6128 36.7966 68.6881 38.72 69.7422 39.302C69.7673 39.2767 69.7924 39.2767 69.7924 39.2767C71.5744 38.2138 68.1862 35.6831 68.1862 35.6831Z" fill="#8D8E8E"/>
<path d="M51.1438 28.5718C51.1438 28.5718 51.1438 28.7995 51.9469 29.5081C52.4238 29.9131 52.9257 30.242 53.3775 30.7229C53.8543 31.229 53.9547 31.5074 54.0802 31.8111C54.4316 32.7475 53.9547 33.3042 53.4779 33.5826C53.4277 33.0005 53.1516 30.9506 51.6959 30.1661C51.6959 30.1661 53.4026 32.2413 52.8002 33.861C52.75 33.861 52.7249 33.8863 52.7249 33.8863C49.8889 34.443 51.1438 28.5718 51.1438 28.5718Z" fill="#00ABA8"/>
<path d="M65.752 46.8182C65.752 46.8182 65.6516 46.6411 65.9277 45.7553C66.1034 45.2239 66.3292 44.743 66.4296 44.2116C66.5551 43.6042 66.53 43.3764 66.4547 43.0727C66.3041 42.2123 65.7018 42.0352 65.1998 42.0352C65.4257 42.4907 66.1285 44.1356 65.4257 45.3757C65.4257 45.3757 65.752 43.0474 64.5975 42.1364C64.5724 42.1364 64.5473 42.1617 64.5473 42.1617C62.1881 43.0474 65.752 46.8182 65.752 46.8182Z" fill="#F08D03"/>
<path d="M65.9524 30.5962C65.9524 30.5962 65.9775 30.748 65.5508 31.3807C65.2998 31.735 64.9987 32.064 64.7728 32.4689C64.5218 32.8991 64.4967 33.1016 64.4716 33.3547C64.3963 34.0633 64.823 34.367 65.1994 34.4682C65.1241 34.0633 64.9736 32.5955 65.8269 31.8109C65.8269 31.8109 65.0238 33.5571 65.7014 34.5441C65.7265 34.5441 65.7516 34.5441 65.7516 34.5441C67.8347 34.4176 65.9524 30.5962 65.9524 30.5962Z" fill="#8D8E8E"/>
<path d="M37.8177 31.1279C37.8177 31.1279 37.8177 31.2798 37.366 31.7606C37.115 32.039 36.8138 32.2921 36.5628 32.5957C36.3119 32.95 36.2617 33.1019 36.1864 33.3297C36.0358 33.937 36.3621 34.2407 36.6632 34.3672C36.6632 34.0129 36.6883 32.7223 37.5417 32.1402C37.5417 32.1402 36.6381 33.5321 37.115 34.4938C37.1401 34.4938 37.1652 34.4938 37.1652 34.4938C38.9722 34.6456 37.8177 31.1279 37.8177 31.1279Z" fill="#8D8E8E"/>
</svg>
